<?xml version="1.0" encoding="utf-8"?>
<!-- Generator: Adobe Illustrator 16.0.4, SVG Export Plug-In . SVG Version: 6.00 Build 0)  -->
<!DOCTYPE svg PUBLIC "-//W3C//DTD SVG 1.1//EN" "http://www.w3.org/Graphics/SVG/1.1/DTD/svg11.dtd">
<svg version="1.1" xmlns="http://www.w3.org/2000/svg" xmlns:xlink="http://www.w3.org/1999/xlink" x="0px" y="0px" width="250px"
	 height="250px" viewBox="0 0 250 250" enable-background="new 0 0 250 250" xml:space="preserve">
<g id="gr_x5F_icon01c_x5F_cookies" display="none">
	<path id="gr_2_" display="inline" fill="#F3BA48" d="M237.664,172.702c0,9.541-6.756,21.249-15.022,26.02l-82.616,47.7
		c-8.267,4.771-21.784,4.771-30.044,0l-82.623-47.7c-8.26-4.771-15.022-16.479-15.022-26.02V77.298
		c0-9.54,6.763-21.249,15.022-26.019l82.623-47.701c8.26-4.77,21.777-4.77,30.044,0l82.616,47.701
		c8.267,4.771,15.022,16.479,15.022,26.019V172.702z"/>
	<path display="inline" fill="#FFFFFF" d="M96.051,195.812c1.338,1.338,2.849,1.822,4.302,1.921
		c-1.486,1.287-3.028,2.58-4.678,3.889c-2.69,2.135-5.898,3.172-9.087,3.172c-4.312,0-8.587-1.904-11.474-5.543
		c-5.021-6.332-3.964-15.54,2.371-20.561c1.897-1.505,3.629-3.147,5.211-4.896c0.434-0.128,0.813-0.257,0.881-0.345
		c0.074,0.352-0.224,1.487-0.399,2.164c-0.562,2.176-1.508,5.817,1.338,8.663c2.845,2.846,6.479,1.897,8.662,1.339
		c0.677-0.177,1.809-0.472,1.938-0.627c0.074,0.353-0.224,1.487-0.399,2.161C94.153,189.327,93.204,192.969,96.051,195.812z
		 M70.473,118.127c-1.829-1.306-4.893-3.493-4.533-7.502c0.353-4.008,3.754-5.621,5.783-6.583c0.634-0.3,1.69-0.803,1.914-1.085
		c-0.203-0.055-1.151-0.667-1.721-1.074c-0.521-0.373-1.146-0.828-1.762-1.367c-7.854-1.699-15.595,3.229-17.366,11.067
		c-1.779,7.885,3.171,15.72,11.051,17.502c0.306,0.067,0.59,0.106,0.888,0.171c-0.203-0.712-0.308-1.485-0.23-2.363
		c0.356-4.01,3.754-5.624,5.783-6.588c0.634-0.3,1.69-0.803,1.914-1.088C71.997,119.214,71.042,118.533,70.473,118.127z
		 M172.516,178.689c-1.694-1.346-3.246-2.815-4.689-4.36c-0.358-0.085-0.697-0.17-1.003-0.251c-0.677-0.176-1.809-0.471-1.928-0.63
		c-0.074,0.352,0.221,1.487,0.396,2.164c0.562,2.176,1.512,5.817-1.334,8.663c-2.847,2.846-6.485,1.897-8.667,1.339
		c-0.678-0.177-1.809-0.472-1.938-0.627c-0.071,0.353,0.224,1.487,0.399,2.161c0.562,2.179,1.512,5.82-1.335,8.663
		c-0.945,0.945-1.979,1.446-3.015,1.711c1.559,1.355,3.185,2.716,4.919,4.099c2.696,2.135,5.901,3.172,9.09,3.172
		c4.316,0,8.585-1.904,11.475-5.543C179.911,192.918,178.851,183.71,172.516,178.689z M197.21,111.582
		c-1.779-7.884-9.598-12.837-17.502-11.05c-0.62,0.141-1.217,0.232-1.833,0.357c-0.468,0.376-0.922,0.71-1.321,0.993
		c-0.569,0.407-1.518,1.02-1.721,1.074c0.224,0.283,1.28,0.786,1.917,1.085c2.026,0.962,5.428,2.575,5.783,6.583
		c0.355,4.009-2.707,6.196-4.536,7.502c-0.569,0.406-1.524,1.087-1.721,1.089c0.223,0.285,1.28,0.788,1.917,1.088
		c2.026,0.964,5.428,2.578,5.78,6.588c0.088,0.999-0.034,1.886-0.299,2.673c0.834-0.169,1.64-0.289,2.487-0.48
		C194.046,127.302,198.995,119.467,197.21,111.582z M175.212,126.571c-2.025-0.964-5.428-2.578-5.779-6.588
		c-0.359-4.01,2.703-6.196,4.533-7.502c0.568-0.407,1.521-1.086,1.721-1.086c-0.224-0.283-1.281-0.786-1.911-1.086
		c-2.032-0.962-5.431-2.575-5.786-6.583c-0.041-0.486-0.034-0.942,0.021-1.375c-8.87,0.813-16.337,0.229-21.256-0.493
		c6.6-5.953,10.773-14.541,10.773-24.126c0-17.963-14.564-32.524-32.524-32.524c-17.966,0-32.526,14.561-32.526,32.524
		c0,9.585,4.17,18.174,10.77,24.126c-5.21,0.764-13.239,1.404-22.8,0.362c0.062,0.473,0.082,0.971,0.034,1.506
		c-0.353,4.008-3.754,5.621-5.783,6.583c-0.634,0.3-1.69,0.803-1.914,1.086c0.203,0,1.152,0.679,1.721,1.086
		c1.83,1.306,4.893,3.493,4.537,7.502c-0.356,4.01-3.754,5.624-5.783,6.588c-0.634,0.3-1.694,0.803-1.914,1.088
		c0.196,0.003,1.148,0.685,1.721,1.091c0.81,0.581,1.86,1.349,2.748,2.359c5.18,0.623,10.095,0.915,14.573,0.915
		c2.951,0,5.726-0.108,8.294-0.285c-1.023,10.552-3.88,24.561-11.35,35.99c0.42,0.264,0.833,0.568,1.227,0.965
		c2.846,2.843,1.903,6.488,1.338,8.663c-0.176,0.678-0.471,1.81-0.396,2.161c0.129-0.152,1.261-0.446,1.938-0.623
		c2.175-0.562,5.813-1.508,8.662,1.342c2.846,2.843,1.9,6.484,1.335,8.659c-0.176,0.678-0.471,1.81-0.396,2.162
		c0.129-0.153,1.264-0.447,1.941-0.624c1.402-0.358,3.419-0.867,5.438-0.427c8.748-9.415,13.762-19.057,16.584-31.112
		c2.802,11.978,7.769,21.575,16.414,30.93c1.538-0.048,2.992,0.332,4.079,0.609c0.678,0.177,1.81,0.471,1.941,0.624
		c0.071-0.353-0.22-1.484-0.396-2.162c-0.565-2.175-1.511-5.816,1.335-8.659c2.846-2.85,6.484-1.904,8.659-1.342
		c0.678,0.177,1.812,0.471,1.938,0.623c0.074-0.352-0.217-1.483-0.394-2.161c-0.565-2.175-1.511-5.82,1.335-8.663
		c0.759-0.759,1.572-1.232,2.398-1.531c-7.195-11.325-9.98-25.045-10.99-35.424c2.571,0.177,5.343,0.285,8.294,0.285
		c3.984,0,8.293-0.203,12.84-0.685c0.929-1.13,2.08-1.965,2.954-2.59c0.569-0.406,1.524-1.088,1.722-1.091
		C176.906,127.374,175.849,126.871,175.212,126.571z M119.289,77.452c1.438,0,2.602,1.166,2.602,2.602
		c0,0.901,1.363,2.704,3.15,2.704s3.148-1.803,3.148-2.704c0-1.437,1.166-2.602,2.603-2.602s2.602,1.166,2.602,2.602
		c0,3.733-3.574,7.907-8.353,7.907c-4.783,0-8.354-4.173-8.354-7.907C116.688,78.618,117.854,77.452,119.289,77.452z M105.217,74.85
		c0,1.437-1.166,2.602-2.603,2.602s-2.602-1.166-2.602-2.602c0-3.733,3.574-7.907,8.351-7.907c4.783,0,8.355,4.174,8.355,7.907
		c0,1.437-1.166,2.602-2.604,2.602c-1.436,0-2.602-1.166-2.602-2.602c0-0.901-1.361-2.704-3.15-2.704
		C106.578,72.146,105.217,73.949,105.217,74.85z M107.694,115.937v-13.091c0-1.907,1.352-2.688,3.005-1.734l11.336,6.545
		c1.653,0.954,1.653,2.515,0,3.469l-11.336,6.545C109.046,118.625,107.694,117.844,107.694,115.937z M125.04,151.07
		c-3.828,0-6.938-3.106-6.938-6.938c0-3.829,3.11-6.938,6.938-6.938c3.832,0,6.938,3.109,6.938,6.938
		C131.979,147.964,128.872,151.07,125.04,151.07z M125.04,129.815c-3.828,0-6.938-3.106-6.938-6.939c0-3.828,3.11-6.938,6.938-6.938
		c3.832,0,6.938,3.11,6.938,6.938C131.979,126.709,128.872,129.815,125.04,129.815z M142.386,115.937
		c0,1.907-1.352,2.688-3.005,1.735l-11.336-6.545c-1.653-0.954-1.653-2.516,0-3.469l11.336-6.545
		c1.653-0.954,3.005-0.173,3.005,1.734V115.937z M144.864,74.85c0-0.901-1.362-2.704-3.15-2.704c-1.786,0-3.147,1.803-3.147,2.704
		c0,1.437-1.166,2.602-2.603,2.602s-2.602-1.166-2.602-2.602c0-3.733,3.574-7.907,8.352-7.907c4.783,0,8.354,4.174,8.354,7.907
		c0,1.437-1.166,2.602-2.603,2.602S144.864,76.287,144.864,74.85z"/>
</g>
<g id="gr_x5F_icon01b_x5F_cookies" display="none">
	<path id="gr_57_" display="inline" fill="#F3BA48" d="M237.667,172.702c0,9.541-6.76,21.25-15.023,26.02l-82.62,47.701
		c-8.263,4.77-21.784,4.77-30.046,0l-82.623-47.701c-8.261-4.77-15.021-16.479-15.021-26.02V77.298
		c0-9.54,6.761-21.249,15.021-26.019l82.623-47.702c8.262-4.77,21.783-4.77,30.046,0l82.62,47.702
		c8.264,4.77,15.023,16.479,15.023,26.019V172.702z"/>
	<path display="inline" fill="#FFFFFF" d="M66.222,127.048c-0.089,1.008,0.131,1.855,0.504,2.598
		c-0.966-0.193-1.905-0.34-2.887-0.559c-7.884-1.782-12.831-9.619-11.052-17.502c1.78-7.884,9.603-12.836,17.503-11.051
		c1.252,0.285,2.468,0.499,3.686,0.722c0.945,0.749,1.384,1.304,1.321,2.012c-0.083,0.942-0.969,1.46-2.83,2.344
		c-1.913,0.905-4.533,2.148-4.801,5.17c-0.268,3.019,2.092,4.706,3.814,5.936c1.677,1.199,2.458,1.867,2.375,2.809
		s-0.971,1.463-2.833,2.348C69.11,122.781,66.49,124.025,66.222,127.048z M97.278,194.589c-2.146-2.145-1.415-4.951-0.884-7
		c0.52-1.992,0.69-3.006,0.024-3.672c-0.668-0.668-1.682-0.496-3.68,0.02c-2.044,0.533-4.853,1.258-7.001-0.887
		c-2.143-2.143-1.414-4.951-0.882-6.996c0.518-1.996,0.688-3.01,0.021-3.676c-0.191-0.193-0.426-0.299-0.689-0.363
		c-1.976,2.416-4.183,4.676-6.704,6.678c-6.334,5.021-7.395,14.229-2.374,20.559c2.891,3.641,7.162,5.543,11.477,5.543
		c3.187,0,6.396-1.037,9.087-3.172c2.436-1.932,4.674-3.836,6.766-5.73C100.73,196.185,98.831,196.14,97.278,194.589z
		 M197.211,111.584c-1.696-7.518-8.89-12.298-16.404-11.184c0.42,0.624,0.726,1.352,0.807,2.256
		c0.264,3.019-2.093,4.702-3.814,5.932c-1.681,1.196-2.46,1.863-2.378,2.802c0.085,0.945,0.972,1.464,2.835,2.349
		c1.915,0.908,4.529,2.151,4.801,5.173c0.264,3.021-2.094,4.709-3.814,5.938c-1.681,1.2-2.46,1.868-2.379,2.81
		c0.081,0.939,0.97,1.463,2.833,2.348c0.155,0.074,0.324,0.154,0.491,0.236c1.965-0.34,3.946-0.701,5.973-1.158
		C194.047,127.305,198.994,119.468,197.211,111.584z M163.027,178.167c-1.991-0.518-3.006-0.688-3.673-0.023
		c-0.671,0.67-0.501,1.684,0.018,3.68c0.531,2.049,1.257,4.854-0.885,6.998s-4.953,1.416-6.999,0.885
		c-1.992-0.521-3.002-0.688-3.673-0.023c-0.67,0.67-0.501,1.684,0.018,3.68c0.254,0.977,0.538,2.121,0.552,3.283
		c1.85,1.645,3.828,3.303,5.939,4.977c2.693,2.135,5.901,3.172,9.09,3.172c4.315,0,8.585-1.902,11.472-5.543
		c5.027-6.33,3.964-15.537-2.368-20.559c-0.742-0.59-1.44-1.217-2.139-1.848c-0.115,0.146-0.213,0.295-0.352,0.438
		C167.886,179.421,165.077,178.7,163.027,178.167z M179.601,119.217c0.081,0.946-0.697,1.613-2.378,2.812
		c-1.721,1.229-4.082,2.917-3.814,5.936c0.115,1.324,0.697,2.293,1.456,3.055c-5.427,0.684-10.576,1.006-15.248,1.006
		c-2.951,0-5.723-0.107-8.297-0.285c1.235,12.709,5.118,30.428,16.54,42.621c-0.071,0.17-0.15,0.332-0.285,0.467
		c-0.671,0.664-1.681,0.492-3.676-0.023c-2.051-0.531-4.859-1.256-6.996,0.885c-2.148,2.145-1.42,4.953-0.889,7.004
		c0.517,1.994,0.688,3.008,0.021,3.676c-0.668,0.67-1.681,0.498-3.673-0.025c-2.047-0.527-4.852-1.26-7,0.885
		c-1.619,1.617-1.603,3.611-1.271,5.373c-10.322-10.254-16.014-20.541-19.092-33.707c-2.978,12.723-8.374,22.758-18.048,32.67
		c-1.252-0.037-2.495,0.281-3.541,0.553c-1.998,0.512-3.013,0.686-3.681,0.018c-0.666-0.668-0.494-1.68,0.023-3.672
		c0.532-2.051,1.263-4.855-0.882-7c-2.142-2.145-4.953-1.416-7.002-0.885c-1.995,0.516-3.01,0.688-3.679,0.018
		c-0.667-0.668-0.496-1.678,0.021-3.672c0.532-2.051,1.261-4.855-0.882-7.002c-0.315-0.312-0.646-0.551-0.984-0.75
		c8.202-11.678,11.264-26.43,12.332-37.432c-2.569,0.178-5.343,0.285-8.295,0.285c-5.334,0-11.274-0.393-17.578-1.312
		c-0.259-0.195-0.513-0.377-0.753-0.551c-1.677-1.197-2.458-1.867-2.374-2.812c0.082-0.941,0.97-1.46,2.832-2.344
		c1.912-0.908,4.532-2.154,4.8-5.177c0.269-3.018-2.092-4.705-3.814-5.935c-1.677-1.2-2.457-1.867-2.375-2.81
		c0.083-0.938,0.969-1.457,2.831-2.341c1.912-0.908,4.532-2.151,4.8-5.169c0.053-0.586-0.019-1.107-0.14-1.599
		c10.356,1.335,19.101,0.694,24.632-0.115c-6.598-5.953-10.769-14.541-10.769-24.129c0-17.963,14.561-32.524,32.526-32.524
		c17.962,0,32.523,14.561,32.523,32.524c0,9.588-4.174,18.176-10.771,24.129c6.406,0.938,17.112,1.657,29.672-0.688
		c1.107,0.586,1.663,1.063,1.73,1.788c0.082,0.939-0.697,1.606-2.378,2.805c-1.721,1.23-4.079,2.915-3.814,5.933
		c0.271,3.022,2.89,4.266,4.804,5.173C178.629,117.758,179.517,118.279,179.601,119.217z M118.408,79.65
		c0,3.632,2.956,6.59,6.592,6.59c3.634,0,6.591-2.958,6.591-6.59c0-0.959-0.775-1.734-1.734-1.734s-1.734,0.775-1.734,1.734
		c0,1.721-1.399,3.121-3.122,3.121c-1.722,0-3.123-1.399-3.123-3.121c0-0.959-0.775-1.734-1.734-1.734S118.408,78.691,118.408,79.65
		z M107.995,77.566c1.721,0,3.12,1.399,3.12,3.121c0,0.958,0.776,1.735,1.735,1.735c0.958,0,1.734-0.776,1.734-1.735
		c0-3.632-2.956-6.59-6.59-6.59c-3.636,0-6.591,2.958-6.591,6.59c0,0.958,0.775,1.735,1.734,1.735s1.734-0.776,1.734-1.735
		C104.873,78.966,106.274,77.566,107.995,77.566z M111.001,117.672l11.335-6.545c1.653-0.952,1.653-2.514,0-3.47l-11.335-6.545
		c-1.654-0.952-3.006-0.173-3.006,1.735v13.09C107.995,117.845,109.347,118.628,111.001,117.672z M131.939,140.667
		c0-3.83-3.109-6.939-6.939-6.939c-3.829,0-6.939,3.109-6.939,6.939s3.11,6.938,6.939,6.938
		C128.83,147.604,131.939,144.497,131.939,140.667z M131.939,119.411c0-3.829-3.109-6.939-6.939-6.939
		c-3.829,0-6.939,3.11-6.939,6.939c0,3.832,3.11,6.939,6.939,6.939C128.83,126.35,131.939,123.242,131.939,119.411z
		 M142.687,102.848c0-1.908-1.349-2.687-3.002-1.735l-11.335,6.545c-1.654,0.956-1.654,2.518,0,3.47l11.335,6.545
		c1.653,0.956,3.002,0.173,3.002-1.734V102.848z M146.86,82.422c0.958,0,1.734-0.776,1.734-1.735c0-3.632-2.954-6.59-6.593-6.59
		c-3.632,0-6.587,2.958-6.587,6.59c0,0.958,0.773,1.735,1.735,1.735c0.955,0,1.735-0.776,1.735-1.735
		c0-1.721,1.396-3.121,3.116-3.121s3.124,1.399,3.124,3.121C145.126,81.646,145.901,82.422,146.86,82.422z"/>
</g>
<g id="gr_x5F_icon01a_x5F_cookies" display="none">
	<path id="gr_1_" display="inline" fill="#F3BA48" d="M237.665,172.702c0,9.541-6.756,21.25-15.021,26.02l-82.618,47.701
		c-8.267,4.77-21.785,4.77-30.044,0l-82.625-47.701c-8.26-4.77-15.021-16.479-15.021-26.02V77.299
		c0-9.541,6.762-21.249,15.021-26.019l82.625-47.702c8.259-4.771,21.777-4.771,30.044,0l82.618,47.702
		c8.266,4.77,15.021,16.479,15.021,26.019V172.702z"/>
	<g id="gr_x5F_happy_1_" display="inline">
		<path fill="#FFFFFF" d="M202.173,103.619c0,2.873-2.331,5.204-5.203,5.204c-0.834,0-1.606-0.213-2.304-0.559
			c-6.804,8.604-13.603,12.979-19.691,14.968c-2.872,9.967-8.618,18.697-16.315,25.236c3.421,6.154,6.891,16.986,6.03,34.857
			c0.807-0.316,1.694-0.531,2.643-0.605c3.883-0.303,7.21,1.797,7.436,4.689c0.221,2.889-2.74,5.482-6.619,5.781
			c-3.886,0.303-7.21-1.797-7.434-4.688c-0.05-0.631,0.079-1.238,0.309-1.818c1.458-18.801-1.928-29.914-5.177-36.021
			c-8.639,6.379-19.283,10.197-30.847,10.197s-22.208-3.818-30.848-10.197c-3.249,6.107-6.633,17.225-5.173,36.033
			c0.228,0.576,0.349,1.182,0.302,1.807c-0.224,2.891-3.548,4.99-7.434,4.688c-3.879-0.299-6.84-2.893-6.62-5.781
			c0.228-2.893,3.555-4.992,7.437-4.689c0.949,0.074,1.84,0.289,2.646,0.605c-0.86-17.869,2.606-28.701,6.031-34.857
			c-7.697-6.537-13.443-15.27-16.316-25.235c-6.088-1.989-12.888-6.364-19.69-14.97c-0.698,0.346-1.471,0.559-2.304,0.559
			c-2.873,0-5.204-2.331-5.204-5.204c0-2.876,2.331-5.204,5.204-5.204c2.876,0,5.203,2.328,5.203,5.204
			c0,0.759-0.169,1.475-0.464,2.126c5.645,7.25,11.197,11.337,16.238,13.482c-0.685-3.362-1.046-6.84-1.046-10.404
			c0-3.832,0.44-7.555,1.227-11.151c1.615-0.24,3.106-0.855,4.387-1.755c1.674,1.174,3.699,1.875,5.898,1.875
			c4.557,0,8.375-2.98,9.729-7.083c1.098,0.396,2.264,0.648,3.493,0.648c5.686,0,10.293-4.609,10.293-10.294
			c0-1.229-0.251-2.396-0.647-3.493c4.103-1.355,7.081-5.173,7.081-9.73c0-2.197-0.701-4.225-1.874-5.896
			c0.83-1.186,1.409-2.555,1.688-4.032c3.473-0.731,7.07-1.128,10.764-1.128c28.739,0,52.039,23.298,52.039,52.038
			c0,3.564-0.363,7.042-1.048,10.404c5.041-2.146,10.595-6.232,16.238-13.48c-0.294-0.652-0.464-1.369-0.464-2.127
			c0-2.876,2.327-5.204,5.204-5.204C199.842,98.415,202.173,100.742,202.173,103.619z"/>
		<path fill="#F3BA48" d="M105.902,109.075c0,2.873-2.331,5.204-5.204,5.204s-5.204-2.331-5.204-5.204s2.331-5.204,5.204-5.204
			S105.902,106.202,105.902,109.075z M149.302,103.871c-2.873,0-5.204,2.331-5.204,5.204s2.331,5.204,5.204,5.204
			s5.204-2.331,5.204-5.204S152.175,103.871,149.302,103.871z M133.673,109.075c0-0.959-0.775-1.735-1.734-1.735
			s-1.734,0.776-1.734,1.735c0,2.87-2.335,5.204-5.204,5.204c-2.87,0-5.204-2.334-5.204-5.204c0-0.959-0.775-1.735-1.734-1.735
			s-1.735,0.776-1.735,1.735c0,4.782,3.894,8.673,8.674,8.673S133.673,113.856,133.673,109.075z M146.7,139.29
			c-2.877,0-5.204,2.33-5.204,5.203c0,2.875,2.327,5.205,5.204,5.205c2.872,0,5.203-2.33,5.203-5.205
			C151.903,141.62,149.572,139.29,146.7,139.29z M153.604,132.554c-1.918,0-3.47,1.553-3.47,3.469s1.552,3.469,3.47,3.469
			c1.914,0,3.469-1.553,3.469-3.469S155.519,132.554,153.604,132.554z M155.779,141.024c-0.96,0-1.735,0.775-1.735,1.734
			s0.775,1.734,1.735,1.734c0.958,0,1.733-0.775,1.733-1.734S156.737,141.024,155.779,141.024z M127.449,74.631
			c0,2.875,2.331,5.204,5.204,5.204c2.876,0,5.204-2.329,5.204-5.204c0-2.874-2.328-5.204-5.204-5.204
			C129.78,69.428,127.449,71.757,127.449,74.631z M122.279,66.16c0,1.916,1.555,3.469,3.469,3.469c1.918,0,3.47-1.554,3.47-3.469
			c0-1.916-1.552-3.469-3.47-3.469C123.834,62.691,122.279,64.244,122.279,66.16z M121.839,72.896c0,0.959,0.776,1.735,1.735,1.735
			c0.958,0,1.734-0.776,1.734-1.735c0-0.958-0.776-1.734-1.734-1.734C122.615,71.162,121.839,71.938,121.839,72.896z"/>
	</g>
</g>
<g id="gr_x5F_icon01_x5F_cookies" display="none">
	<g id="gr_x5F_big" display="inline">
		<path id="gr_49_" fill="#F3BA48" d="M237.666,172.701c0,9.541-6.756,21.251-15.021,26.019l-82.621,47.702
			c-8.262,4.771-21.785,4.771-30.043,0L27.356,198.72c-8.263-4.768-15.021-16.478-15.021-26.019V77.298
			c0-9.541,6.759-21.249,15.021-26.019L109.98,3.579c8.259-4.771,21.782-4.771,30.043,0l82.621,47.701
			c8.266,4.77,15.021,16.478,15.021,26.019V172.701z"/>
		<path fill="#FFFFFF" d="M125.001,62.502c-4.437,0-8.761,0.476-12.929,1.355c-0.331,1.775-1.029,3.416-2.026,4.839
			c1.409,2.011,2.253,4.445,2.253,7.085c0,5.472-3.578,10.057-8.51,11.684c0.481,1.32,0.781,2.718,0.781,4.195
			c0,6.828-5.535,12.362-12.364,12.362c-1.476,0-2.874-0.302-4.195-0.778c-1.626,4.928-6.208,8.507-11.685,8.507
			c-2.64,0-5.074-0.842-7.087-2.253c-1.534,1.079-3.327,1.82-5.267,2.108c-0.941,4.32-1.472,8.791-1.472,13.393
			c0,34.52,27.979,62.5,62.5,62.5c34.514,0,62.5-27.98,62.5-62.5C187.502,90.484,159.516,62.502,125.001,62.502z M98.962,146.755
			c-3.487,3.487-9.138,3.489-12.626,0c-3.487-3.489-3.487-9.14,0-12.628c3.484-3.485,9.139-3.489,12.626,0
			S102.45,143.267,98.962,146.755z M105.206,122.833c-2.097,2.096-5.482,2.1-7.579,0.003c-2.096-2.094-2.093-5.483,0.004-7.579
			c2.089-2.089,5.476-2.091,7.571,0.004C107.298,117.355,107.294,120.743,105.206,122.833z M129.48,80.076
			c3.951,0,7.146,3.198,7.146,7.148c0,3.939-3.195,7.141-7.146,7.141c-3.938,0-7.14-3.202-7.14-7.141
			C122.34,83.274,125.542,80.076,129.48,80.076z M116.767,124.295c2.787-2.785,7.313-2.785,10.096,0.002
			c2.795,2.792,2.791,7.317,0.008,10.102c-2.793,2.793-7.314,2.792-10.107-0.002C113.981,131.612,113.973,127.089,116.767,124.295z
			 M128.643,166.779c-4.931,0-8.928-3.995-8.928-8.929c0-4.935,3.997-8.929,8.928-8.929c4.932,0,8.93,3.994,8.93,8.929
			C137.572,162.784,133.574,166.779,128.643,166.779z M136.623,114.289c-2.957,0-5.354-2.394-5.354-5.357s2.396-5.357,5.354-5.357
			c2.965,0,5.359,2.395,5.359,5.357S139.588,114.289,136.623,114.289z M149.975,172.137c-2.965,0-5.365-2.395-5.365-5.357
			s2.4-5.357,5.365-5.357c2.949,0,5.35,2.395,5.35,5.357S152.924,172.137,149.975,172.137z M157.113,152.213
			c-3.951,0-7.146-3.201-7.146-7.141c0-3.95,3.195-7.148,7.146-7.148c3.938,0,7.139,3.198,7.139,7.148
			C164.252,149.012,161.051,152.213,157.113,152.213z M157.949,108.932c-4.928,0-8.928-3.995-8.928-8.929
			c0-4.935,4-8.929,8.928-8.929c4.936,0,8.93,3.994,8.93,8.929C166.879,104.937,162.885,108.932,157.949,108.932z"/>
	</g>
</g>
<g id="gr_x5F_icon02_x5F_disquis" display="none">
	<g id="gr_x5F_big_1_" display="inline">
		<path id="gr_199_" fill="#F3BA48" d="M237.668,172.702c0,9.54-6.756,21.25-15.025,26.019l-82.621,47.701
			c-8.262,4.771-21.781,4.771-30.043,0l-82.624-47.701c-8.262-4.769-15.021-16.479-15.021-26.019V77.298
			c0-9.541,6.76-21.249,15.021-26.019l82.624-47.702c8.263-4.771,21.782-4.771,30.043,0l82.621,47.702
			c8.27,4.77,15.025,16.478,15.025,26.019V172.702z"/>
		<path fill="#FFFFFF" d="M142.666,124.906c0,10.585-7.613,18.853-18.105,18.853h-8.915v-37.61h8.915
			C135.053,106.149,142.666,114.411,142.666,124.906z M187.531,125c0,34.521-27.979,62.5-62.5,62.5
			c-14.091,0-27.086-4.661-37.542-12.525l-28.391-0.049l9.843-22.32c-4.102-8.319-6.41-17.695-6.41-27.605
			c0-34.521,27.979-62.5,62.5-62.5C159.553,62.5,187.531,90.479,187.531,125z M158.082,124.906
			c0-17.828-14.674-32.408-32.593-32.408h-22.66c-0.928,0-1.671,0.834-1.671,1.765v61.474c0,0.931,0.743,1.765,1.671,1.765h22.66
			C143.408,157.501,158.082,142.92,158.082,124.906z"/>
	</g>
</g>
<g id="gr_x5F_icon03_x5F_eagerBeaver" display="none">
	<g id="gr_x5F_big_2_" display="inline">
		<path id="gr_195_" fill="#F3BA48" d="M237.668,172.701c0,9.541-6.76,21.251-15.023,26.019l-82.623,47.702
			c-8.262,4.771-21.781,4.771-30.043,0L27.354,198.72c-8.263-4.768-15.021-16.478-15.021-26.019V77.298
			c0-9.541,6.759-21.249,15.021-26.019l82.624-47.701c8.263-4.771,21.782-4.771,30.043,0l82.623,47.701
			c8.264,4.77,15.023,16.478,15.023,26.019V172.701z"/>
		<g>
			<path fill="#FFFFFF" d="M72.677,91.654c-5.037,0-9.128-4.087-9.128-9.131c0-5.043,4.091-9.131,9.128-9.131
				c5.043,0,9.134,4.088,9.134,9.131C81.811,87.566,77.72,91.654,72.677,91.654z M179.422,73.392c-5.043,0-9.135,4.088-9.135,9.131
				c0,5.043,4.092,9.131,9.135,9.131c5.037,0,9.127-4.087,9.127-9.131C188.549,77.48,184.459,73.392,179.422,73.392z
				 M169.146,106.449c-1.395,1.394-1.395,3.655,0,5.05c9.285,9.286,9.285,24.396,0,33.687c-9.291,9.287-24.398,9.284-33.691,0
				c-2.211-2.215-3.895-4.802-5.074-7.599c6.684-4.689,19.25-16.015,19.207-25.915c-0.049-12.512-15.705-15.453-22.74-6.193
				c-0.184,0.248-0.377,0.628-0.533,0.628c-0.15,0-0.363-0.391-0.558-0.636c-7.104-9.19-22.726-6.118-22.677,6.388
				c0.038,9.816,12.476,20.939,19.241,25.646c-1.175,2.83-2.874,5.446-5.109,7.681c-4.499,4.499-10.48,6.977-16.842,6.977
				c-6.362,0-12.347-2.478-16.846-6.977c-9.288-9.29-9.288-24.4,0-33.687c1.395-1.394,1.395-3.655,0-5.05
				c-1.396-1.395-3.655-1.395-5.051,0c-12.071,12.069-12.071,31.712,0,43.787c5.849,5.849,13.627,9.07,21.896,9.07
				c8.269,0,16.043-3.222,21.892-9.07c1.553-1.55,2.902-3.243,4.075-5.036c1.168,1.793,2.521,3.486,4.07,5.036
				c6.037,6.035,13.965,9.054,21.895,9.054c7.932,0,15.859-3.019,21.896-9.054c12.068-12.074,12.068-31.717,0-43.787
				C172.803,105.054,170.543,105.054,169.146,106.449z M129.986,157.193v29.144h0.359c10.084,0,18.26-8.177,18.26-18.262v-1.648
				c-6.676-0.793-13.139-3.72-18.256-8.83C130.225,157.467,130.113,157.324,129.986,157.193z M104.066,166.427v1.648
				c0,10.085,8.183,18.262,18.259,18.262h0.359v-29.144c-0.13,0.131-0.237,0.273-0.366,0.403
				C117.211,162.706,110.742,165.634,104.066,166.427z"/>
		</g>
	</g>
</g>
<g id="gr_x5F_icon04_x5F_imageOptimize" display="none">
	<g id="gr_x5F_big_3_" display="inline">
		<path id="gr_192_" fill="#F3BA48" d="M237.666,172.7c0,9.541-6.76,21.249-15.021,26.017l-82.625,47.705
			c-8.258,4.771-21.781,4.771-30.042,0l-82.621-47.705c-8.263-4.768-15.021-16.476-15.021-26.017V77.297
			c0-9.541,6.759-21.249,15.021-26.019l82.621-47.702c8.262-4.771,21.785-4.771,30.042,0l82.625,47.702
			c8.262,4.77,15.021,16.478,15.021,26.019V172.7z"/>
		<g>
			<g>
				<path fill="#FFFFFF" d="M97.871,71.914c0.722-5.877,6.069-10.057,11.945-9.335l68.268,8.384
					c5.881,0.72,10.059,6.069,9.334,11.944l-10.014,81.571c-0.721,5.875-6.072,10.053-11.945,9.331l-68.272-8.381
					c-5.873-0.722-10.048-6.07-9.329-11.945L97.871,71.914z"/>
				<path fill="#F3BA48" d="M105.401,69.237l-9.257,75.36l75.364,9.253l9.256-75.36L105.401,69.237z"/>
			</g>
			<g>
				<path fill="#FFFFFF" d="M162.139,167.091c0.723,5.875-3.453,11.223-9.326,11.943l-68.275,8.383
					c-5.874,0.722-11.224-3.455-11.942-9.331L62.579,96.515c-0.722-5.874,3.456-11.224,9.333-11.944l68.268-8.384
					c5.881-0.72,11.225,3.458,11.949,9.333L162.139,167.091z"/>
				<path fill="#F3BA48" d="M69.237,92.098l9.253,75.362l75.362-9.255l-9.256-75.362L69.237,92.098z M113.911,144.427
					c-1.946,0.239-24.386-11.988-25.914-24.456c-1.492-12.139,13.323-16.92,21.282-8.817c0.217,0.216,0.472,0.572,0.614,0.555
					c0.153-0.02,0.297-0.412,0.45-0.671c5.762-9.806,21.303-8.752,22.792,3.392C134.67,126.896,115.836,144.191,113.911,144.427z"/>
			</g>
		</g>
	</g>
</g>
<g id="gr_x5F_icon05_x5F_instantAnalytics" display="none">
	<g id="gr_x5F_big_4_" display="inline">
		<path id="gr_188_" fill="#F3BA48" d="M237.667,172.706c0,9.541-6.758,21.245-15.02,26.021l-82.628,47.696
			c-8.262,4.771-21.777,4.771-30.039,0l-82.628-47.696c-8.262-4.775-15.02-16.479-15.02-26.021V77.299
			c0-9.541,6.758-21.246,15.02-26.021L109.98,3.578c8.262-4.771,21.777-4.771,30.039,0l82.628,47.701
			c8.262,4.775,15.02,16.48,15.02,26.021V172.706z"/>
		<path fill="#FFFFFF" d="M187.5,99.306c0,3.486-2.832,6.318-6.318,6.318c-1.133,0-2.188-0.327-3.105-0.85l-28.428,24.795
			c0.244,0.664,0.391,1.377,0.391,2.129c0,3.481-2.832,6.318-6.318,6.318c-3.477,0-6.318-2.837-6.318-6.318
			c0-0.264,0.049-0.513,0.088-0.762l-27.139-14.61c-1.104,0.938-2.52,1.528-4.072,1.528c-0.859,0-1.68-0.176-2.422-0.488
			l-29.326,30.67c0.371,0.814,0.605,1.709,0.605,2.661c0,3.486-2.832,6.318-6.318,6.318s-6.319-2.832-6.319-6.318
			c0-3.481,2.833-6.313,6.319-6.313c0.85,0,1.67,0.17,2.412,0.479l29.336-30.67c-0.381-0.811-0.605-1.704-0.605-2.661
			c0-3.481,2.832-6.318,6.318-6.318c3.477,0,6.318,2.837,6.318,6.318c0,0.264-0.049,0.513-0.088,0.767l27.139,14.61
			c1.104-0.938,2.52-1.528,4.072-1.528c1.064,0,2.041,0.288,2.91,0.747l28.564-24.908c-0.195-0.61-0.332-1.245-0.332-1.914
			c0-3.481,2.832-6.318,6.318-6.318S187.5,95.825,187.5,99.306z"/>
	</g>
</g>
<g id="gr_x5F_icon06_x5F_minify" display="none">
	<g id="gr_x5F_big_5_" display="inline">
		<path id="gr_100_" fill="#F3BA48" d="M237.666,172.702c0,9.539-6.759,21.247-15.021,26.019l-82.623,47.701
			c-8.263,4.771-21.78,4.771-30.043,0l-82.623-47.701c-8.263-4.771-15.021-16.479-15.021-26.019V77.298
			c0-9.541,6.759-21.249,15.021-26.018l82.623-47.702c8.263-4.771,21.78-4.771,30.043,0l82.623,47.702
			c8.263,4.769,15.021,16.478,15.021,26.018V172.702z"/>
		<path fill="#FFFFFF" d="M166.514,109.981c2.107,2.112,1.396,3.834-1.587,3.834h-23.322c-2.979,0-5.419-2.439-5.419-5.421V85.07
			c0-2.982,1.729-3.695,3.832-1.587l3.24,3.239c2.106,2.104,5.557,2.104,7.663,0l13.71-13.714c2.106-2.106,5.56-2.106,7.666,0
			l4.694,4.696c2.106,2.106,2.106,5.556,0,7.666l-13.714,13.71c-2.106,2.112-2.106,5.558,0,7.667L166.514,109.981z M86.719,143.256
			c2.11,2.11,2.11,5.56,0,7.668l-13.71,13.708c-2.106,2.108-2.106,5.554,0,7.666l4.698,4.692c2.106,2.11,5.556,2.108,7.666,0
			l13.703-13.706c2.106-2.107,5.556-2.107,7.666-0.004l3.236,3.238c2.104,2.108,3.833,1.396,3.833-1.587v-23.322
			c0-2.982-2.441-5.42-5.42-5.42H85.066c-2.979,0-3.69,1.723-1.588,3.831L86.719,143.256z M85.373,73.012
			c-2.11-2.11-5.56-2.112-7.666-0.003l-4.698,4.696c-2.106,2.11-2.106,5.556,0,7.666l13.714,13.71c2.106,2.112,2.106,5.558,0,7.667
			l-3.236,3.233c-2.107,2.112-1.396,3.834,1.587,3.834h23.321c2.979,0,5.42-2.439,5.42-5.421V85.07c0-2.982-1.726-3.695-3.832-1.587
			l-3.24,3.239c-2.106,2.104-5.557,2.104-7.659,0L85.373,73.012z M166.521,140.021c2.103-2.108,1.391-3.831-1.588-3.831h-23.325
			c-2.979,0-5.42,2.438-5.42,5.42v23.322c0,2.98,1.729,3.695,3.833,1.587l3.236-3.238c2.11-2.106,5.56-2.104,7.666,0.004
			l13.703,13.706c2.11,2.108,5.56,2.11,7.666,0l4.698-4.692c2.106-2.112,2.106-5.558,0-7.666l-13.71-13.708
			c-2.11-2.108-2.11-5.558,0-7.668L166.521,140.021z"/>
	</g>
</g>
<g id="gr_x5F_icon07_x5F_pathTools" display="none">
	<g id="gr_x5F_big_7_" display="inline">
		<path id="gr_109_" fill="#F3BA48" d="M237.666,172.702c0,9.539-6.756,21.251-15.021,26.019l-82.621,47.701
			c-8.262,4.771-21.781,4.771-30.043,0l-82.624-47.701c-8.263-4.768-15.021-16.479-15.021-26.019V77.298
			c0-9.539,6.759-21.25,15.021-26.018L109.98,3.579c8.263-4.771,21.782-4.771,30.043,0l82.621,47.702
			c8.266,4.768,15.021,16.479,15.021,26.018V172.702z"/>
		<g>
			<path fill="#FFFFFF" d="M91.966,89.286c0,1.479-1.2,2.679-2.679,2.679c-1.656,0-3.32,0.122-4.949,0.37
				c-0.136,0.018-0.269,0.028-0.401,0.028c-1.304,0-2.448-0.952-2.644-2.281c-0.223-1.465,0.788-2.829,2.25-3.048
				c1.891-0.282,3.822-0.425,5.744-0.425C90.766,86.607,91.966,87.807,91.966,89.286z M86.323,157.907
				c-3.425-0.304-6.759-1.137-9.919-2.477c-1.36-0.582-2.93,0.057-3.509,1.42s0.056,2.934,1.416,3.512
				c3.676,1.56,7.559,2.529,11.537,2.881c0.084,0.008,0.161,0.011,0.244,0.011c1.371,0,2.539-1.05,2.665-2.441
				C88.886,159.337,87.798,158.036,86.323,157.907z M108.903,151.584c-2.77,2.048-5.821,3.642-9.068,4.733
				c-1.402,0.474-2.155,1.991-1.682,3.393c0.377,1.12,1.42,1.824,2.539,1.824c0.279,0,0.572-0.045,0.852-0.139
				c3.78-1.273,7.324-3.125,10.543-5.508c1.189-0.879,1.44-2.557,0.562-3.746C111.769,150.956,110.088,150.698,108.903,151.584z
				 M56.266,126.012L56.251,125c0-3.111,0.43-6.187,1.28-9.145c0.408-1.419-0.411-2.905-1.831-3.313
				c-1.423-0.397-2.909,0.412-3.316,1.834c-0.987,3.436-1.489,7.01-1.489,10.624l0.014,1.165c0.042,1.455,1.234,2.603,2.679,2.603
				c0.024,0,0.049,0,0.076,0C55.143,128.722,56.307,127.49,56.266,126.012z M190.471,110.634c0.463,0.956,1.418,1.514,2.412,1.514
				c0.391,0,0.789-0.084,1.162-0.269c1.332-0.642,1.891-2.243,1.248-3.575c-1.732-3.585-4.01-6.871-6.766-9.769
				c-1.021-1.074-2.721-1.12-3.787-0.094c-1.074,1.019-1.117,2.714-0.098,3.784C187.02,104.723,188.98,107.551,190.471,110.634z
				 M59.46,139.224c-0.642-1.336-2.242-1.904-3.571-1.263c-1.34,0.638-1.904,2.235-1.263,3.571c1.716,3.596,3.976,6.892,6.721,9.805
				c0.526,0.558,1.238,0.84,1.95,0.84c0.659,0,1.318-0.24,1.838-0.729c1.077-1.016,1.126-2.71,0.111-3.788
				C62.885,145.156,60.936,142.317,59.46,139.224z M72.424,93.395c-0.792-1.249-2.448-1.611-3.7-0.823
				c-3.369,2.142-6.376,4.782-8.929,7.851c-0.949,1.133-0.795,2.825,0.342,3.77c0.502,0.418,1.109,0.621,1.716,0.621
				c0.768,0,1.527-0.328,2.058-0.966c2.197-2.637,4.785-4.911,7.688-6.756C72.846,96.3,73.216,94.643,72.424,93.395z
				 M148.279,88.668c-3.773,1.294-7.311,3.164-10.512,5.556c-1.188,0.886-1.432,2.563-0.545,3.749
				c0.523,0.701,1.332,1.074,2.148,1.074c0.559,0,1.115-0.174,1.598-0.534c2.758-2.058,5.803-3.666,9.047-4.774
				c1.395-0.481,2.141-2.005,1.664-3.404C151.201,88.934,149.674,88.191,148.279,88.668z M175.512,89.565
				c-3.684-1.535-7.568-2.483-11.553-2.818c-1.467-0.132-2.77,0.973-2.895,2.445c-0.121,1.472,0.973,2.769,2.449,2.891
				c3.424,0.29,6.766,1.105,9.932,2.427c0.34,0.14,0.688,0.206,1.033,0.206c1.047,0,2.043-0.617,2.473-1.646
				C177.52,91.703,176.875,90.137,175.512,89.565z M124.782,129.817c-1.454-0.328-2.87,0.613-3.177,2.064
				c-0.712,3.355-1.939,6.567-3.651,9.549c-0.736,1.28-0.297,2.92,0.986,3.656c0.422,0.24,0.879,0.355,1.332,0.355
				c0.928,0,1.832-0.481,2.327-1.347c1.991-3.463,3.42-7.202,4.249-11.104C127.154,131.543,126.229,130.124,124.782,129.817z
				 M199.08,123.644c-0.049-1.479-1.324-2.588-2.762-2.588c-1.479,0.052-2.637,1.291-2.588,2.769l0.021,1.175
				c0,3.056-0.418,6.079-1.242,8.988c-0.4,1.423,0.426,2.905,1.85,3.307c0.244,0.069,0.49,0.101,0.732,0.101
				c1.168,0,2.242-0.771,2.572-1.949c0.957-3.383,1.445-6.898,1.445-10.457C199.105,124.536,199.098,124.09,199.08,123.644z
				 M186.189,146.035c-2.189,2.65-4.768,4.935-7.658,6.794c-1.244,0.799-1.604,2.455-0.805,3.7c0.512,0.799,1.373,1.231,2.256,1.231
				c0.494,0,0.998-0.136,1.443-0.426c3.359-2.158,6.352-4.812,8.895-7.889c0.941-1.141,0.781-2.829-0.359-3.771
				S187.133,144.892,186.189,146.035z M130.963,105.057c-1.287-0.729-2.928-0.279-3.652,1.008c-1.977,3.477-3.39,7.219-4.192,11.129
				c-0.3,1.447,0.631,2.863,2.078,3.163c0.182,0.039,0.366,0.056,0.544,0.056c1.246,0,2.359-0.872,2.623-2.138
				c0.691-3.355,1.904-6.574,3.607-9.567C132.699,107.425,132.25,105.79,130.963,105.057z M165.662,157.667
				c-1.625,0.247-3.293,0.369-4.945,0.369c-1.48,0-2.68,1.2-2.68,2.679s1.199,2.679,2.68,2.679c1.918,0,3.85-0.143,5.74-0.426
				c1.465-0.22,2.469-1.583,2.252-3.048C168.486,158.455,167.105,157.479,165.662,157.667z"/>
			<path fill="#FFFFFF" d="M86.825,69.343c-6.469,0-11.719,5.245-11.719,11.722c0,6.48,9.277,16.375,9.277,16.375
				c1.347,1.434,3.544,1.434,4.887,0c0,0,9.281-9.895,9.281-16.375C98.551,74.588,93.298,69.343,86.825,69.343z M86.825,84.85
				c-2.393,0-4.342-1.95-4.342-4.342s1.949-4.342,4.342-4.342c2.396,0,4.346,1.95,4.346,4.342S89.221,84.85,86.825,84.85z"/>
			<path fill="#FFFFFF" d="M163.014,136.9c-6.469,0-11.721,5.246-11.721,11.723c0,6.48,9.277,16.375,9.277,16.375
				c1.346,1.434,3.543,1.434,4.889,0c0,0,9.277-9.895,9.277-16.375C174.736,142.146,169.488,136.9,163.014,136.9z M163.014,152.407
				c-2.395,0-4.342-1.949-4.342-4.342s1.947-4.343,4.342-4.343c2.396,0,4.344,1.95,4.344,4.343S165.41,152.407,163.014,152.407z"/>
		</g>
	</g>
</g>
<g id="gr_x5F_icon08_x5F_recipe" display="none">
	<g id="gr_x5F_big_8_" display="inline">
		<path id="gr_178_" fill="#F3BA48" d="M237.664,172.702c0,9.539-6.76,21.251-15.021,26.019l-82.621,47.701
			c-8.263,4.771-21.78,4.771-30.043,0l-82.621-47.701c-8.263-4.768-15.021-16.479-15.021-26.019V77.298
			c0-9.539,6.759-21.25,15.021-26.018l82.621-47.702c8.263-4.771,21.78-4.771,30.043,0l82.621,47.702
			c8.262,4.768,15.021,16.479,15.021,26.018V172.702z"/>
		<path fill="#FFFFFF" d="M169.263,129.238c-0.642,0-1.276,0.034-1.904,0.101L148.067,95.93l3.24-1.873l-12.981-22.496l-9.943,5.741
			c-3.47,2.005-4.656,6.431-2.654,9.901l5.741,9.94c1.998,3.467,6.432,4.653,9.898,2.654l2.113-1.224l18.568,32.161
			c-1.862,0.802-3.551,1.922-5.029,3.265l-31.277-18.304l2.329-4.032l-33.74-19.479l-8.607,14.91
			c-3.003,5.2-1.224,11.848,3.976,14.851l14.91,8.608c5.2,3.003,11.852,1.221,14.854-3.979l3.498-6.058l30.521,17.864
			c-0.963,1.66-1.682,3.481-2.079,5.424H116.18v-4.07H62.5v23.721c0,8.272,6.707,14.983,14.977,14.983h23.72
			c8.272,0,14.983-6.711,14.983-14.983v-13.965h34.972c1.008,9.106,8.743,16.214,18.111,16.214c10.059,0,18.237-8.179,18.237-18.23
			C187.5,137.417,179.321,129.238,169.263,129.238z M169.263,159.198c-6.463,0-11.723-5.26-11.723-11.727
			c0-6.47,5.26-11.729,11.723-11.729c6.47,0,11.732,5.26,11.732,11.729C180.995,153.938,175.732,159.198,169.263,159.198z"/>
	</g>
</g>
<g id="gr_x5F_icon09_x5F_richVariables" display="none">
	<g id="gr_x5F_big_9_" display="inline">
		<path id="gr_176_" fill="#F3BA48" d="M237.664,172.701c0,9.539-6.76,21.251-15.021,26.019l-82.621,47.702
			c-8.262,4.771-21.78,4.771-30.043,0L27.357,198.72c-8.262-4.768-15.021-16.479-15.021-26.019V77.298
			c0-9.539,6.76-21.25,15.021-26.019l82.621-47.701c8.263-4.771,21.781-4.771,30.043,0l82.621,47.701
			c8.262,4.768,15.021,16.479,15.021,26.019V172.701z"/>
		<path fill="#FFFFFF" d="M97.199,105.894v6.31c0,0.812-0.453,1.172-0.812,1.444l-19.378,11.538l19.378,11.171
			c0.359,0.271,0.812,0.631,0.812,1.443v6.306c0,1.444-1.354,2.166-2.528,1.444L63.4,127.075c-0.447-0.271-0.9-0.99-0.9-1.535v-0.45
			c0-0.541,0.453-1.259,0.9-1.531l31.271-19.106C95.846,103.732,97.199,104.454,97.199,105.894z M137.486,93.457h-6.494
			c-0.719,0-1.44,0.541-1.622,1.168l-17.665,59.665c-0.359,1.263,0.453,2.253,1.621,2.253h6.582c0.631,0,1.443-0.541,1.618-1.172
			l17.574-59.665C139.467,94.448,138.742,93.457,137.486,93.457z M186.601,123.56l-31.271-19.106c-1.175-0.722-2.528,0-2.528,1.44
			v6.31c0,0.812,0.359,1.172,0.812,1.444l19.287,11.538l-19.287,11.171c-0.453,0.271-0.812,0.631-0.812,1.443v6.306
			c0,1.444,1.354,2.166,2.528,1.444l31.271-18.475c0.446-0.271,0.899-0.99,0.899-1.535v-0.45
			C187.5,124.55,187.047,123.832,186.601,123.56z"/>
	</g>
</g>
<g id="gr_x5F_icon10_x5F_seoMatic" display="none">
	<g id="gr_x5F_big_10_" display="inline">
		<path id="gr_104_" fill="#F3BA48" d="M237.666,172.701c0,9.539-6.756,21.251-15.021,26.019l-82.621,47.702
			c-8.262,4.771-21.781,4.771-30.043,0L27.356,198.72c-8.263-4.768-15.021-16.479-15.021-26.019V77.298
			c0-9.539,6.759-21.25,15.021-26.019L109.98,3.579c8.263-4.771,21.782-4.771,30.043,0l82.621,47.701
			c8.266,4.768,15.021,16.479,15.021,26.019V172.701z"/>
		<g>
			<path fill="#FFFFFF" d="M149.373,113.166c2.338,4.039,0.928,9.305-3.152,11.663c-4.045,2.337-9.312,0.921-11.648-3.118
				c-2.352-4.081-0.963-9.385,3.076-11.719C141.729,107.635,147.016,109.085,149.373,113.166z"/>
			<path fill="#FFFFFF" d="M175.658,105.608c-3.092,1.786-7.061,0.722-8.838-2.368c-1.787-3.09-0.727-7.059,2.363-8.845
				l28.223-16.294c3.098-1.782,7.061-0.718,8.846,2.372c1.785,3.09,0.725,7.056-2.371,8.841L175.658,105.608z"/>
			<path fill="#FFFFFF" d="M153.691,71.125l-83.509,48.214c-6.836,3.945-9.173,12.681-5.232,19.517l20.09,34.794
				c3.948,6.832,12.682,9.173,19.518,5.231l83.509-48.215c6.83-3.948,9.174-12.684,5.225-19.517l-20.09-34.793
				C169.262,69.521,160.521,67.181,153.691,71.125z M103.182,157.593c-4.826,2.783-8.649,2.323-9.995,1.96
				c-0.586-0.157-0.788-0.24-0.788-0.935l-0.035-4.081c0.021-0.655,0.768-0.986,1.137-0.952c0.188-0.01,3.997,0.415,6.445-1.001
				c1.486-0.857,2.023-2.406,1.27-3.703c-0.899-1.556-2.881-1.995-5.984-1.542c-3.914,0.582-9.354,0.408-11.929-4.042
				c-2.12-3.673-1.401-9.03,4.312-12.33c3.857-2.229,7.959-1.974,9.542-1.799c0.593,0,0.907,0.711,0.907,1.057l-0.244,3.951
				c-0.021,0.559-0.496,1.276-0.977,1.21c-0.447,0.004-4.332-0.471-6.592,0.834c-1.34,0.774-1.821,2.242-1.249,3.243
				c0.795,1.375,2.504,1.766,6.124,1.263c3.558-0.522,9.466-0.913,12.375,4.134C109.711,148.678,108.63,154.443,103.182,157.593z
				 M120.775,118.649c0.216,0.37,0.104,0.875-0.3,1.109L110.2,125.69l2.658,4.601l8.454-4.883c0.369-0.213,0.899-0.07,1.116,0.3
				l2.329,4.038c0.237,0.412,0.077,0.903-0.293,1.116l-8.461,4.883l2.895,5.009l10.276-5.933c0.404-0.237,0.893-0.073,1.107,0.296
				l2.338,4.046c0.209,0.37,0.104,0.876-0.301,1.109l-15.359,8.866c-0.405,0.237-0.9,0.073-1.109-0.297l-14.182-24.557
				c-0.209-0.37-0.104-0.879,0.301-1.113l15.359-8.866c0.404-0.237,0.9-0.073,1.109,0.296L120.775,118.649z M149.646,130.765
				c-7.422,4.283-16.721,1.789-21.004-5.628c-4.283-7.418-1.842-16.797,5.58-21.08c7.422-4.283,16.805-1.737,21.088,5.682
				S157.061,126.482,149.646,130.765z M176.814,109.839c-5.127,2.958-11.676,1.207-14.633-3.92
				c-2.965-5.127-1.207-11.677,3.92-14.634c5.119-2.958,11.676-1.207,14.635,3.92C183.693,100.332,181.936,106.881,176.814,109.839z
				"/>
			<path fill="#F3BA48" d="M198.746,80.423c1.82-1.05,4.137-0.425,5.189,1.388c1.047,1.813,0.426,4.136-1.395,5.183l-28.223,16.295
				c-1.814,1.046-4.129,0.425-5.184-1.388c-1.045-1.813-0.426-4.137,1.389-5.183L198.746,80.423 M196.068,75.785L167.846,92.08
				c-4.367,2.521-5.875,8.126-3.35,12.5c2.525,4.37,8.135,5.873,12.5,3.348l28.223-16.295c4.375-2.525,5.873-8.13,3.355-12.5
				C206.049,74.759,200.441,73.26,196.068,75.785L196.068,75.785z"/>
		</g>
	</g>
</g>
<g id="gr_x5F_icon11_x5F_typogrify" display="none">
	<g id="gr_x5F_big_11_" display="inline">
		<path id="gr_85_" fill="#F3BA48" d="M237.667,172.701c0,9.541-6.758,21.25-15.02,26.021l-82.628,47.7
			c-8.262,4.771-21.777,4.771-30.039,0l-82.628-47.7c-8.262-4.771-15.02-16.479-15.02-26.021V77.299
			c0-9.541,6.758-21.25,15.02-26.021l82.628-47.7c8.262-4.771,21.777-4.771,30.039,0l82.628,47.7
			c8.262,4.771,15.02,16.48,15.02,26.021V172.701z"/>
		<g>
			<path fill="#FFFFFF" d="M62.724,162.256l35.763-77.393c0.342-0.688,0.918-1.26,1.953-1.26h1.162c1.143,0,1.611,0.571,1.953,1.26
				l35.41,77.393c0.693,1.494-0.234,2.993-1.953,2.993h-10c-1.729,0-2.539-0.698-3.34-2.305l-5.635-12.412H83.652l-5.635,12.412
				c-0.459,1.152-1.494,2.305-3.33,2.305h-10C62.958,165.249,62.04,163.75,62.724,162.256z M112.402,137.764l-11.494-25.303h-0.352
				l-11.27,25.303H112.402z"/>
			<path fill="#FFFFFF" d="M166.689,136.152c4.6,0,8.398,1.265,8.398,1.265c0.107-5.859-1.738-7.93-5.986-7.93
				c-4.258,0-10.234,0.918-12.881,1.719c-1.602,0.464-2.412-0.571-2.646-2.065l-1.035-5.977c-0.342-1.729,0.576-2.534,1.611-2.881
				c0.918-0.342,8.281-2.188,15.635-2.188c14.375,0,17.715,7.48,17.715,20.01v24.951c0,1.152-1.035,2.192-2.188,2.192h-4.141
				c-0.801,0-1.377-0.342-1.953-1.616l-1.377-3.105c-2.646,2.417-6.904,5.869-14.033,5.869c-9.189,0-15.527-5.977-15.527-15.757
				C148.281,142.476,154.961,136.152,166.689,136.152z M166.914,156.621c3.682,0,7.246-3.105,7.93-4.482v-6.328
				c0,0-3.096-1.382-6.436-1.382c-4.482,0-7.471,2.534-7.471,6.211C160.938,154.097,163.35,156.621,166.914,156.621z"/>
		</g>
	</g>
</g>
<g id="gr_x5F_icon12_x5F_fastCGI_x5F_cacheBust" display="none">
	<g id="gr_x5F_big_12_" display="inline">
		<path id="gr_179_" fill="#F3BA48" d="M237.664,172.701c0,9.539-6.76,21.251-15.021,26.019l-82.621,47.701
			c-8.263,4.771-21.78,4.771-30.043,0L27.357,198.72c-8.263-4.768-15.021-16.479-15.021-26.019V77.298
			c0-9.539,6.759-21.251,15.021-26.019l82.621-47.702c8.263-4.771,21.78-4.771,30.043,0l82.621,47.702
			c8.262,4.768,15.021,16.479,15.021,26.019V172.701z"/>
		<g>
			<path fill="#FFFFFF" d="M81.55,97.098c7.826,0,13.487,2.483,18.761,7.212c0.697,0.614,0.697,1.549,0.08,2.166l-4.729,4.883
				c-0.544,0.617-1.318,0.617-1.942,0c-3.254-2.867-7.597-4.572-11.936-4.572c-9.922,0-17.285,8.293-17.285,18.059
				c0,9.689,7.439,17.91,17.362,17.91c4.649,0,8.604-1.782,11.858-4.419c0.624-0.544,1.476-0.464,1.942,0l4.803,4.955
				c0.617,0.548,0.464,1.553-0.073,2.097c-5.273,5.116-11.942,7.52-18.841,7.52c-15.499,0-27.979-12.325-27.979-27.825
				C53.571,109.581,66.051,97.098,81.55,97.098z"/>
			<path fill="#FFFFFF" d="M134.264,97.098c6.976,0,13.644,2.713,18.913,7.212c0.618,0.614,0.698,1.549,0.077,2.166l-4.806,5.04
				c-0.617,0.618-1.318,0.618-2.017,0c-3.33-2.943-7.438-4.496-11.701-4.496c-9.692,0-17.365,8.294-17.365,17.983
				c0,9.612,7.673,17.752,17.442,17.752c4.339,0,7.673-1.322,9.222-1.939v-6.592h-6.201c-0.854,0-1.469-0.617-1.469-1.392v-6.124
				c0-0.851,0.614-1.472,1.469-1.472h14.882c0.777,0,1.398,0.694,1.398,1.472v19.845c0,0.617-0.313,1.004-0.621,1.238
				c0,0-7.983,5.039-19.224,5.039c-15.423,0-27.825-12.248-27.825-27.748C106.438,109.581,118.841,97.098,134.264,97.098z"/>
			<path fill="#FFFFFF" d="M163.138,173.046c-2.853,3.436-3.909,2.822-2.357-1.359l12.113-32.69
				c1.552-4.179-0.342-9.428-4.21-11.656l-4.541-2.629c-3.868-2.229-4.698-6.864-1.852-10.299l31.064-37.455
				c2.85-3.436,3.91-2.822,2.358,1.36l-12.117,32.687c-1.548,4.186,0.346,9.431,4.214,11.66l4.541,2.63
				c3.868,2.231,4.698,6.863,1.845,10.299L163.138,173.046z"/>
		</g>
	</g>
</g>
<g id="gr_x5F_icon13_x5F_transcoder" display="none">
	<g id="gr_x5F_big_31_" display="inline">
		<path id="gr_215_" fill="#F3BA48" d="M237.666,172.703c0,9.54-6.756,21.249-15.021,26.018l-82.622,47.701
			c-8.262,4.771-21.784,4.771-30.043,0l-82.624-47.701c-8.263-4.769-15.021-16.478-15.021-26.018V77.299
			c0-9.541,6.759-21.249,15.021-26.019l82.624-47.702c8.259-4.771,21.781-4.771,30.043,0l82.622,47.702
			c8.266,4.77,15.021,16.478,15.021,26.019V172.703z"/>
		<g>
			<path fill="#FFFFFF" d="M131.126,103.905l2.225,4.623l-3.962,8.247L124.688,107c-1.109-2.311-4.457-4.414-7.018-4.414H62.505
				c-1.971,0-3.571-1.599-3.571-3.572c0-1.972,1.601-3.571,3.571-3.571h55.165C122.933,95.444,128.845,99.16,131.126,103.905z
				 M184.4,149.2l-15.241-8.799c-1.702-0.982-3.094-0.179-3.094,1.785v5.229h-9.113c-2.563,0-5.911-2.104-7.021-4.414l-4.701-9.772
				l-3.963,8.245l2.226,4.625c2.284,4.743,8.196,8.459,13.459,8.459h9.113v5.229c0,1.964,1.392,2.768,3.094,1.785l15.241-8.8
				C186.103,151.79,186.103,150.183,184.4,149.2z"/>
			<path fill="#FFFFFF" d="M184.4,100.803l-15.241,8.796c-1.702,0.981-3.094,0.178-3.094-1.786v-5.225h-9.113
				c-2.563,0-5.911,2.104-7.021,4.414l-18.806,39.096c-2.281,4.743-8.193,8.459-13.456,8.459H62.505
				c-1.971,0-3.571-1.599-3.571-3.571s1.601-3.571,3.571-3.571h55.165c2.561,0,5.908-2.104,7.018-4.412l18.806-39.098
				c2.284-4.744,8.196-8.459,13.459-8.459h9.113v-5.228c0-1.964,1.392-2.768,3.094-1.786l15.241,8.799
				C186.103,98.213,186.103,99.821,184.4,100.803z"/>
		</g>
	</g>
</g>
<g id="gr_x5F_icon14_x5F_routeMap" display="none">
	<g id="gr_x5F_big_34_" display="inline">
		<path id="gr_219_" fill="#F3BA48" d="M237.667,172.701c0,9.543-6.756,21.251-15.025,26.019l-82.621,47.702
			c-8.262,4.771-21.78,4.771-30.043,0L27.354,198.72c-8.262-4.768-15.021-16.476-15.021-26.019V77.299
			c0-9.539,6.76-21.248,15.021-26.019l82.624-47.702c8.263-4.771,21.781-4.771,30.043,0l82.621,47.702
			c8.27,4.771,15.025,16.479,15.025,26.019V172.701z"/>
		<g>
			<path fill="#FFFFFF" d="M189.071,91.963l-28.43-10.344v-0.053l-0.072,0.024l-0.07-0.024v0.053l-35.498,12.918L89.499,81.619
				v-0.053l-0.073,0.024l-0.069-0.024v0.053L60.928,91.963c-3.944,1.438-7.143,5.801-7.143,9.745v74.999
				c0,3.944,3.198,5.978,7.143,4.541l28.498-10.372l35.502,12.922v0.052l0.073-0.027l0.069,0.027v-0.052l35.499-12.922
				l28.502,10.372c3.943,1.437,7.143-0.597,7.143-4.541v-74.999C196.214,97.764,193.015,93.4,189.071,91.963z M92.262,163.283
				c0,1.97-1.602,3.571-3.572,3.571c-1.97,0-3.571-1.602-3.571-3.571v-7.269c0-1.971,1.602-3.571,3.571-3.571
				c1.971,0,3.572,1.601,3.572,3.571V163.283z M92.262,141.481c0,1.974-1.602,3.571-3.572,3.571c-1.97,0-3.571-1.598-3.571-3.571
				v-7.266c0-1.974,1.602-3.571,3.571-3.571c1.971,0,3.572,1.598,3.572,3.571V141.481z M92.262,119.684
				c0,1.971-1.602,3.57-3.572,3.57c-1.97,0-3.571-1.6-3.571-3.57v-7.269c0-1.974,1.602-3.571,3.571-3.571
				c1.971,0,3.572,1.598,3.572,3.571V119.684z M92.262,97.882c0,1.971-1.602,3.571-3.572,3.571c-1.97,0-3.571-1.601-3.571-3.571
				v-7.269c0-1.971,1.602-3.571,3.571-3.571c1.971,0,3.572,1.601,3.572,3.571V97.882z M128.573,174.796
				c0,1.974-1.598,3.571-3.572,3.571s-3.571-1.598-3.571-3.571v-7.265c0-1.975,1.597-3.572,3.571-3.572s3.572,1.598,3.572,3.572
				V174.796z M128.573,152.997c0,1.971-1.598,3.572-3.572,3.572s-3.571-1.602-3.571-3.572v-7.268c0-1.971,1.597-3.572,3.571-3.572
				s3.572,1.602,3.572,3.572V152.997z M128.573,131.195c0,1.975-1.598,3.572-3.572,3.572s-3.571-1.598-3.571-3.572v-7.268
				c0-1.97,1.597-3.571,3.571-3.571s3.572,1.602,3.572,3.571V131.195z M128.573,109.395c0,1.975-1.598,3.572-3.572,3.572
				s-3.571-1.598-3.571-3.572v-7.265c0-1.974,1.597-3.571,3.571-3.571s3.572,1.598,3.572,3.571V109.395z M164.88,163.283
				c0,1.97-1.598,3.571-3.572,3.571c-1.971,0-3.57-1.602-3.57-3.571v-7.269c0-1.971,1.6-3.571,3.57-3.571
				c1.975,0,3.572,1.601,3.572,3.571V163.283z M164.88,141.481c0,1.974-1.598,3.571-3.572,3.571c-1.971,0-3.57-1.598-3.57-3.571
				v-7.266c0-1.974,1.6-3.571,3.57-3.571c1.975,0,3.572,1.598,3.572,3.571V141.481z M164.88,119.684c0,1.971-1.598,3.57-3.572,3.57
				c-1.971,0-3.57-1.6-3.57-3.57v-7.269c0-1.974,1.6-3.571,3.57-3.571c1.975,0,3.572,1.598,3.572,3.571V119.684z M164.88,97.882
				c0,1.971-1.598,3.571-3.572,3.571c-1.971,0-3.57-1.601-3.57-3.571v-7.269c0-1.971,1.6-3.571,3.57-3.571
				c1.975,0,3.572,1.601,3.572,3.571V97.882z"/>
			<g>
				<path fill="#F3BA48" d="M155.63,67.047c-13.029,0-23.611,10.568-23.611,23.619c0,13.058,18.693,32.994,18.693,32.994
					c2.715,2.881,7.137,2.881,9.85,0c0,0,18.695-19.937,18.695-32.994C179.257,77.615,168.675,67.047,155.63,67.047z M155.63,98.29
					c-4.82,0-8.746-3.927-8.746-8.747s3.926-8.747,8.746-8.747c4.828,0,8.762,3.927,8.762,8.747S160.458,98.29,155.63,98.29z"/>
				<path fill="#FFFFFF" d="M155.638,130.719c-3.23,0-6.244-1.312-8.49-3.705c-2.057-2.189-20.025-21.776-20.025-36.348
					c0-15.723,12.793-28.516,28.508-28.516c15.73,0,28.523,12.793,28.523,28.516c0,14.571-17.969,34.158-20.02,36.342
					C161.888,129.406,158.866,130.719,155.638,130.719z M155.63,71.943c-10.316,0-18.707,8.398-18.707,18.723
					c0,8.105,10.65,22.481,17.361,29.646c0.955,1.012,1.744,1.019,2.707-0.007c6.709-7.164,17.369-21.562,17.369-29.639
					C174.36,80.342,165.954,71.943,155.63,71.943z M155.665,80.887c-4.896,0-8.879,3.982-8.879,8.879c0,4.897,3.982,8.88,8.879,8.88
					c4.904,0,8.895-3.982,8.895-8.88C164.56,84.869,160.569,80.887,155.665,80.887z"/>
			</g>
		</g>
	</g>
</g>
<g id="gr_x5F_icon15_x5F_similar" display="none">
	<g id="gr_x5F_big_36_" display="inline">
		<path id="gr_218_" fill="#F3BA48" d="M237.666,172.702c0,9.538-6.762,21.247-15.015,26.018l-82.628,47.702
			c-8.266,4.771-21.782,4.771-30.042,0L27.36,198.72c-8.267-4.771-15.028-16.479-15.028-26.018V77.298
			c0-9.538,6.761-21.247,15.028-26.018l82.621-47.702c8.26-4.771,21.776-4.771,30.042,0l82.628,47.702
			c8.253,4.771,15.015,16.479,15.015,26.018V172.702z"/>
		<path fill="#FFFFFF" d="M169.64,163.937c-2.489,0-4.618,1.468-5.622,3.57h-18.514c-0.611-1.288-1.655-2.329-2.943-2.946V85.982
			c1.465-0.699,2.611-1.95,3.174-3.489h18.053c0.881,2.394,3.153,4.117,5.853,4.117c3.451,0,6.253-2.801,6.253-6.253
			s-2.802-6.249-6.253-6.249c-2.266,0-4.232,1.221-5.324,3.028h-19.104c-1.099-1.807-3.065-3.028-5.33-3.028
			c-2.266,0-4.231,1.221-5.331,3.028h-19.104c-1.099-1.807-3.065-3.028-5.33-3.028c-2.265,0-4.232,1.221-5.331,3.028H85.689
			c-1.099-1.807-3.065-3.028-5.33-3.028c-3.459,0-6.253,2.797-6.253,6.249s2.794,6.253,6.253,6.253c2.699,0,4.978-1.723,5.853-4.117
			h18.053c0.562,1.54,1.709,2.791,3.174,3.489v78.579c-1.289,0.617-2.326,1.658-2.95,2.946H85.981
			c-1.003-2.103-3.133-3.57-5.622-3.57c-3.459,0-6.253,2.798-6.253,6.249c0,3.452,2.794,6.25,6.253,6.25
			c2.489,0,4.618-1.465,5.622-3.57h18.507c1.01,2.105,3.14,3.57,5.629,3.57c2.489,0,4.625-1.465,5.628-3.57h18.507
			c1.011,2.105,3.14,3.57,5.629,3.57s4.618-1.465,5.622-3.57h18.514c1.004,2.105,3.133,3.57,5.622,3.57
			c3.451,0,6.253-2.798,6.253-6.25C175.893,166.734,173.091,163.937,169.64,163.937z M134.253,167.507h-18.507
			c-0.617-1.288-1.662-2.329-2.95-2.946V85.982c1.472-0.699,2.611-1.95,3.174-3.489h18.06c0.562,1.54,1.709,2.791,3.174,3.489
			v78.579C135.914,165.178,134.87,166.219,134.253,167.507z"/>
	</g>
</g>
<g id="gr_x5F_icon15_x5F_similar_2_" display="none">
	<g id="gr_x5F_big_37_" display="inline">
		<path id="gr_225_" fill="#F3BA48" d="M237.67,172.861c0,9.539-6.759,21.251-15.019,26.019l-82.624,47.702
			c-8.266,4.771-21.784,4.771-30.043,0L27.36,198.88c-8.266-4.768-15.025-16.479-15.025-26.019V77.458
			c0-9.539,6.759-21.25,15.025-26.019l82.624-47.701c8.259-4.771,21.777-4.771,30.043,0l82.624,47.701
			c8.26,4.768,15.019,16.479,15.019,26.019V172.861z"/>
		<path fill="#FFFFFF" d="M169.646,165.932c-2.341,0-4.356,1.301-5.427,3.205l-16.79-1.095c-0.601-1.504-1.761-2.714-3.229-3.38
			l-1.465-75.384c1.43-0.739,2.525-1.999,3.048-3.543l18.712-2.229c1.127,1.639,3.01,2.717,5.151,2.717
			c3.452,0,6.25-2.797,6.25-6.25c0-3.453-2.798-6.25-6.25-6.25c-2.835,0-5.2,1.897-5.964,4.482l-18.527,2.208
			c-1.109-1.747-3.048-2.916-5.27-2.916c-2.459,0-4.565,1.433-5.584,3.495l-18.513-0.248c-0.987-2.148-3.146-3.652-5.667-3.652
			c-2.302,0-4.29,1.256-5.375,3.107l-18.697-2.242c-0.979-2.173-3.151-3.69-5.688-3.69c-3.453,0-6.25,2.797-6.25,6.25
			c0,3.453,2.797,6.25,6.25,6.25c2.431,0,4.515-1.402,5.549-3.428l18.38,2.204c0.526,1.395,1.535,2.532,2.821,3.244l-3.034,75.823
			c-1.196,0.517-2.183,1.406-2.856,2.512l-14.997-1.507c-0.869-2.41-3.153-4.146-5.863-4.146c-3.453,0-6.25,2.8-6.25,6.25
			c0,3.452,2.797,6.25,6.25,6.25c2.267,0,4.232-1.218,5.329-3.024l14.997,1.507c0.869,2.413,3.153,4.146,5.863,4.146
			c2.49,0,4.622-1.465,5.626-3.571h23.828c1.005,2.106,3.136,3.571,5.626,3.571c2.344,0,4.363-1.304,5.43-3.212l16.787,1.092
			c0.914,2.315,3.16,3.955,5.8,3.955c3.452,0,6.25-2.797,6.25-6.25C175.896,168.732,173.098,165.932,169.646,165.932z
			 M109.426,164.829l3.027-75.697c1.427-0.575,2.57-1.664,3.25-3.031l18.517,0.248c0.639,1.388,1.758,2.504,3.16,3.118l1.461,75.313
			c-1.242,0.621-2.242,1.633-2.839,2.889h-23.828C111.592,166.444,110.626,165.457,109.426,164.829z"/>
	</g>
</g>
<g id="gr_x5F_icon15_x5F_similar_1_" display="none">
	<g id="gr_x5F_big_13_" display="inline">
		<path id="gr_222_" fill="#F3BA48" d="M237.666,172.702c0,9.543-6.759,21.247-15.019,26.019l-82.624,47.701
			c-8.266,4.771-21.784,4.771-30.043,0l-82.624-47.701c-8.266-4.771-15.025-16.476-15.025-26.019V77.298
			c0-9.541,6.759-21.249,15.025-26.018L109.98,3.579c8.259-4.771,21.777-4.771,30.043,0l82.624,47.702
			c8.26,4.77,15.019,16.478,15.019,26.018V172.702z"/>
		<g display="none">
			<path display="inline" fill="#FFFFFF" d="M123.115,111.129c0,27.854-25.223,50.433-25.223,50.433s-25.216-22.579-25.223-50.44
				c0-27.86,25.23-50.431,25.23-50.431S123.115,83.27,123.115,111.129z"/>
			<g display="inline">
				<g>
					
						<line fill="none" stroke="#F3BA48" stroke-linecap="round" stroke-linejoin="round" stroke-miterlimit="10" x1="91.3" y1="143.314" x2="97.794" y2="149.111"/>
					
						<line fill="none" stroke="#F3BA48" stroke-linecap="round" stroke-linejoin="round" stroke-miterlimit="10" x1="97.997" y1="149.118" x2="104.491" y2="143.314"/>
				</g>
				
					<line fill="none" stroke="#F3BA48" stroke-linecap="round" stroke-linejoin="round" stroke-miterlimit="10" x1="97.794" y1="130.079" x2="97.794" y2="149.111"/>
			</g>
		</g>
		<g>
			<g>
				<g>
					<g>
						<g>
							<g>
								<path fill="#FFFFFF" d="M86.927,109.337c13.386,13.396,29.241,12.517,29.241,12.517c3.924-0.216,7.311-3.603,7.527-7.526
									c0,0,0.875-15.845-12.521-29.248C97.78,71.683,74.326,71.488,74.326,71.488c-3.929-0.031-6.337,3.052-5.354,6.857
									C68.972,78.345,73.527,95.944,86.927,109.337z"/>
							</g>
							<path fill="#F3BA48" d="M119.073,115.803c0.021-0.095,0.065-0.178,0.07-0.275l0.332-5.912
								c0.056-0.987-0.698-1.828-1.683-1.883c-0.975-0.14-1.827,0.698-1.881,1.681l-0.108,1.929l-6.33-6.33
								c-0.697-0.698-1.828-0.698-2.525,0c-0.698,0.697-0.698,1.827,0,2.525l6.419,6.42l-2.115,0.119
								c-0.983,0.056-1.737,0.899-1.681,1.883c0.052,0.949,0.841,1.686,1.781,1.686c0.035,0,0.068,0,0.103-0.004l5.916-0.335
								c0.472-0.028,0.886-0.244,1.188-0.562c0.01-0.011,0.024-0.018,0.037-0.027c0.003-0.004,0.009-0.011,0.012-0.015
								c0.005-0.007,0.014-0.007,0.019-0.014c0.051-0.053,0.071-0.118,0.115-0.175c0.094-0.118,0.188-0.233,0.249-0.373
								C119.035,116.034,119.048,115.918,119.073,115.803z"/>
						</g>
					</g>
				</g>
				<g>
					<g>
						<g>
							<g>
								<path fill="#FFFFFF" d="M166.799,109.337c-13.393,13.396-29.248,12.517-29.248,12.517c-3.924-0.216-7.311-3.603-7.526-7.526
									c0,0-0.876-15.845,12.521-29.248c13.393-13.396,36.854-13.592,36.854-13.592c3.928-0.031,6.338,3.052,5.354,6.857
									C184.754,78.345,180.195,95.944,166.799,109.337z"/>
							</g>
							<path fill="#F3BA48" d="M146.775,105.012c-0.697-0.698-1.827-0.698-2.524,0l-6.334,6.33l-0.108-1.929
								c-0.056-0.98-0.906-1.813-1.882-1.681c-0.985,0.056-1.738,0.896-1.683,1.883l0.331,5.912c0.006,0.098,0.049,0.181,0.07,0.275
								c0.024,0.115,0.038,0.23,0.085,0.338c0.062,0.14,0.155,0.255,0.25,0.373c0.043,0.057,0.064,0.122,0.115,0.175
								c0.005,0.007,0.014,0.007,0.019,0.014c0.004,0.004,0.009,0.011,0.013,0.015c0.012,0.01,0.026,0.017,0.036,0.027
								c0.302,0.321,0.715,0.533,1.188,0.562l5.915,0.335c0.035,0.004,0.068,0.004,0.104,0.004c0.939,0,1.728-0.736,1.78-1.686
								c0.056-0.983-0.697-1.827-1.681-1.883l-2.115-0.119l6.422-6.42C147.474,106.839,147.474,105.709,146.775,105.012z"/>
						</g>
					</g>
				</g>
			</g>
			<g>
				<g>
					<g>
						<g>
							<g>
								<path fill="#FFFFFF" d="M86.927,140.664c13.386-13.396,29.241-12.518,29.241-12.518c3.924,0.216,7.311,3.603,7.527,7.526
									c0,0,0.875,15.845-12.521,29.248c-13.393,13.396-36.848,13.592-36.848,13.592c-3.929,0.031-6.337-3.052-5.354-6.856
									C68.972,171.656,73.527,154.057,86.927,140.664z"/>
							</g>
							<path fill="#F3BA48" d="M119.143,134.474c-0.005-0.08-0.045-0.15-0.061-0.23c-0.026-0.136-0.047-0.272-0.106-0.401
								c-0.052-0.111-0.129-0.202-0.2-0.304c-0.054-0.072-0.085-0.16-0.152-0.227c-0.005-0.007-0.014-0.007-0.019-0.014
								c-0.012-0.014-0.028-0.021-0.042-0.035c-0.033-0.034-0.073-0.056-0.108-0.083c-0.293-0.269-0.659-0.461-1.086-0.485
								l-5.916-0.335c-0.999-0.101-1.829,0.698-1.883,1.682c-0.056,0.983,0.698,1.827,1.681,1.883l2.115,0.119l-6.419,6.421
								c-0.698,0.697-0.698,1.827,0,2.525c0.349,0.349,0.806,0.522,1.262,0.522c0.457,0,0.914-0.174,1.263-0.522l6.33-6.331
								l0.108,1.929c0.052,0.949,0.84,1.685,1.78,1.685c0.033,0,0.068,0,0.101-0.003c0.985-0.056,1.739-0.896,1.683-1.884
								L119.143,134.474z"/>
						</g>
					</g>
				</g>
				<g>
					<g>
						<g>
							<g>
								<path fill="#FFFFFF" d="M166.799,140.664c-13.393-13.396-29.248-12.518-29.248-12.518c-3.924,0.216-7.311,3.603-7.526,7.526
									c0,0-0.876,15.845,12.521,29.248c13.393,13.396,36.854,13.592,36.854,13.592c3.928,0.031,6.338-3.052,5.354-6.856
									C184.754,171.656,180.195,154.057,166.799,140.664z"/>
							</g>
							<path fill="#F3BA48" d="M146.775,142.464l-6.422-6.421l2.115-0.119c0.983-0.056,1.736-0.899,1.681-1.883
								c-0.054-0.983-0.899-1.789-1.884-1.682l-5.915,0.335c-0.382,0.021-0.708,0.188-0.986,0.408
								c-0.095,0.066-0.186,0.126-0.266,0.206c-0.002,0.003-0.002,0.003-0.003,0.003c-0.008,0.008-0.009,0.018-0.016,0.024
								c-0.146,0.153-0.266,0.325-0.35,0.523c-0.047,0.108-0.061,0.224-0.085,0.339c-0.021,0.094-0.064,0.178-0.07,0.275
								l-0.331,5.911c-0.056,0.987,0.697,1.828,1.683,1.884c0.033,0.003,0.068,0.003,0.102,0.003c0.939,0,1.729-0.735,1.78-1.685
								l0.108-1.929l6.334,6.331c0.349,0.349,0.806,0.522,1.262,0.522c0.457,0,0.914-0.174,1.263-0.522
								C147.474,144.291,147.474,143.161,146.775,142.464z"/>
						</g>
					</g>
				</g>
			</g>
		</g>
	</g>
</g>
<g id="gr_x5F_icon16_x5F_twigProfiler" display="none">
	<g id="gr_x5F_big_40_" display="inline">
		<path id="gr_230_" fill="#F3BA48" d="M237.665,172.702c0,9.539-6.756,21.251-15.021,26.019l-82.621,47.702
			c-8.263,4.771-21.781,4.771-30.044,0l-82.625-47.702c-8.262-4.768-15.021-16.479-15.021-26.019V77.301
			c0-9.542,6.759-21.254,15.021-26.019l82.625-47.706c8.263-4.771,21.781-4.771,30.044,0l82.621,47.706
			c8.266,4.764,15.021,16.476,15.021,26.019V172.702z"/>
		<path fill="#FFFFFF" d="M189.168,111.146l-20.09-34.793c-3.94-6.836-12.681-9.173-19.51-5.228l-83.511,48.215
			c-6.836,3.944-9.173,12.682-5.231,19.514l20.089,34.798c3.948,6.832,12.682,9.172,19.518,5.228l83.511-48.211
			C190.772,126.716,193.116,117.982,189.168,111.146z M110.017,104.409l2.225-1.285c0.238-0.138,0.545-0.055,0.683,0.183
			l6.643,11.501c0.138,0.238,0.055,0.546-0.183,0.683l-2.224,1.286c-0.238,0.137-0.545,0.055-0.683-0.183l-6.644-11.502
			C109.696,104.854,109.779,104.546,110.017,104.409z M77.058,123.438l2.224-1.285c0.238-0.137,0.545-0.055,0.683,0.183
			l6.643,11.502c0.138,0.237,0.055,0.545-0.183,0.683l-2.224,1.286c-0.238,0.138-0.545,0.055-0.683-0.183l-6.643-11.503
			C76.737,123.883,76.82,123.575,77.058,123.438z M87.576,150.355l-5.314,3.071c-0.238,0.138-0.545,0.055-0.683-0.183
			l-13.786-23.877c-0.138-0.237-0.055-0.545,0.183-0.683l5.314-3.072c0.238-0.137,0.545-0.055,0.683,0.183l13.786,23.877
			C87.897,149.91,87.814,150.218,87.576,150.355z M92.424,131.061l-2.231,1.286c-0.238,0.138-0.545,0.056-0.683-0.183l-6.643-11.503
			c-0.138-0.238-0.055-0.545,0.183-0.683l2.231-1.286c0.238-0.137,0.545-0.055,0.683,0.184l6.643,11.502
			C92.745,130.615,92.662,130.923,92.424,131.061z M98.416,127.601l-2.231,1.286c-0.238,0.138-0.545,0.055-0.683-0.183
			l-6.643-11.502c-0.138-0.238-0.055-0.545,0.183-0.683l2.231-1.286c0.238-0.138,0.545-0.055,0.683,0.183l6.643,11.502
			C98.737,127.155,98.654,127.463,98.416,127.601z M104.408,124.141l-2.23,1.286c-0.238,0.137-0.545,0.055-0.683-0.184
			l-6.643-11.501c-0.138-0.238-0.055-0.545,0.183-0.683l2.231-1.286c0.238-0.138,0.545-0.055,0.683,0.183l6.643,11.502
			C104.729,123.696,104.646,124.003,104.408,124.141z M120.633,131.271l-5.321,3.071c-0.238,0.138-0.545,0.055-0.683-0.183
			l-13.786-23.877c-0.138-0.238-0.055-0.545,0.183-0.683l5.321-3.071c0.238-0.138,0.545-0.055,0.683,0.183l13.786,23.877
			C120.954,130.825,120.872,131.133,120.633,131.271z M125.383,112.031l-2.23,1.286c-0.238,0.138-0.545,0.055-0.683-0.183
			l-6.644-11.501c-0.138-0.238-0.055-0.545,0.183-0.683l2.231-1.287c0.238-0.137,0.545-0.055,0.683,0.184l6.643,11.501
			C125.704,111.586,125.622,111.893,125.383,112.031z M131.375,108.57l-2.23,1.287c-0.238,0.137-0.546,0.055-0.684-0.184
			l-6.643-11.501c-0.138-0.238-0.055-0.545,0.183-0.683l2.23-1.286c0.238-0.138,0.545-0.055,0.683,0.183l6.644,11.501
			C131.696,108.126,131.613,108.433,131.375,108.57z M137.366,105.111l-2.229,1.286c-0.238,0.137-0.546,0.055-0.684-0.184
			l-6.643-11.501c-0.138-0.238-0.055-0.545,0.184-0.683l2.229-1.286c0.238-0.138,0.546-0.055,0.684,0.183l6.643,11.502
			C137.688,104.667,137.604,104.974,137.366,105.111z M153.593,112.241l-5.322,3.071c-0.237,0.138-0.545,0.055-0.683-0.183
			l-13.786-23.876c-0.138-0.238-0.055-0.545,0.183-0.683l5.322-3.071c0.237-0.138,0.545-0.055,0.683,0.183l13.786,23.876
			C153.913,111.796,153.83,112.103,153.593,112.241z M168.514,109.13c-3.411,1.974-7.785,0.802-9.752-2.616
			c-1.974-3.418-0.802-7.78,2.616-9.751c3.41-1.975,7.777-0.806,9.751,2.612C173.104,102.79,171.932,107.16,168.514,109.13z"/>
	</g>
</g>
<g id="gr_x5F_icon16_x5F_twigProfiler_1_" display="none">
	<g id="gr_x5F_big_38_" display="inline">
		<path id="gr_227_" fill="#F3BA48" d="M237.666,172.702c0,9.541-6.76,21.249-15.021,26.021l-82.625,47.698
			c-8.258,4.771-21.781,4.771-30.042,0l-82.621-47.698c-8.262-4.771-15.021-16.479-15.021-26.021V77.3
			c0-9.541,6.759-21.249,15.021-26.019l82.621-47.702c8.262-4.771,21.785-4.771,30.042,0l82.625,47.702
			c8.262,4.77,15.021,16.478,15.021,26.019V172.702z"/>
		<g>
			<path fill="#FFFFFF" d="M89.838,187.499h7.15c0,0,0-16.924,5.636-17.299c0,0-4.98-0.33-5.734,2.304c0,0-4.792-40.66-7.052-44.045
				c-2.253-3.381-2.253-3.381-2.253-3.381c2.253,3.381,4.262,40.985,3.383,43.993c0,0-4.137-7.271-7.143-9.526
				C83.826,159.545,91.345,170.575,89.838,187.499z"/>
			<path fill="#FFFFFF" d="M120.677,181.855h14.913c0,0-3.383-48.882,12.41-62.545c0,0-9.402,0.248-17.045,28.202
				c0,0,8.148-104.789,35.223-79.97c0,0-32.59-35.6-44.625,82.352c0,0-5.891-15.545-20.557-14.04
				C100.996,135.854,123.934,139.489,120.677,181.855z"/>
		</g>
	</g>
</g>
<g id="gr_x5F_icon17_x5F_retour_x5F_01" display="none">
	<g id="gr_x5F_big_39_" display="inline">
		<path id="gr_231_" fill="#F3BA48" d="M237.667,172.704c0,9.543-6.759,21.248-15.021,26.019l-82.624,47.698
			c-8.263,4.771-21.78,4.771-30.043,0l-82.624-47.698c-8.263-4.771-15.021-16.476-15.021-26.019V77.299
			c0-9.539,6.759-21.248,15.021-26.019l82.624-47.702c8.263-4.771,21.78-4.771,30.043,0l82.624,47.702
			c8.263,4.771,15.021,16.479,15.021,26.019V172.704z"/>
		<g display="none">
			<g display="inline">
				
					<path fill="none" stroke="#FFFFFF" stroke-width="2" stroke-linecap="round" stroke-linejoin="round" stroke-miterlimit="10" d="
					M108.723,144.643c0,10.303-8.35,18.652-18.655,18.652c-10.3,0-18.652-8.35-18.652-18.652s8.353-18.653,18.652-18.653
					c5.151,0,18.655,0,18.655,0S108.723,139.491,108.723,144.643z"/>
			</g>
			<g display="inline">
				
					<path fill="none" stroke="#FFFFFF" stroke-width="2" stroke-linecap="round" stroke-linejoin="round" stroke-miterlimit="10" d="
					M141.295,107.335c0-10.301,8.35-18.652,18.655-18.652c10.296,0,18.649,8.351,18.649,18.652c0,10.303-8.354,18.654-18.649,18.654
					c-5.151,0-18.655,0-18.655,0S141.295,112.487,141.295,107.335z"/>
			</g>
			
				<polyline display="inline" fill="none" stroke="#FFFFFF" stroke-width="2" stroke-linecap="round" stroke-linejoin="round" stroke-miterlimit="10" points="
				141.295,174.379 141.295,125.989 108.723,125.989 108.984,125.726 108.984,77.335 			"/>
			
				<polyline display="inline" fill="none" stroke="#FFFFFF" stroke-width="2" stroke-linecap="round" stroke-linejoin="round" stroke-miterlimit="10" points="
				91.563,88.683 109.357,70.885 125.883,87.412 			"/>
			
				<polyline display="inline" fill="none" stroke="#FFFFFF" stroke-width="2" stroke-linecap="round" stroke-linejoin="round" stroke-miterlimit="10" points="
				158.454,160.232 140.656,178.026 124.132,161.502 			"/>
		</g>
		<path fill="#FFFFFF" d="M153.316,102.817c8.664-8.664,8.664-22.761-0.003-31.428c-8.667-8.665-22.765-8.665-31.428-0.002
			c-8.664,8.666-8.664,22.765,0,31.43l10.665,10.666l-17.794,17.797l-30.608-30.607l15.276,0.002c1.974,0,3.571-1.599,3.571-3.571
			c0-1.973-1.598-3.572-3.571-3.572l-23.371-0.001c-1.894,0-3.571,1.677-3.571,3.571l0.003,25.167c0,1.974,1.598,3.573,3.571,3.571
			c0.984,0.002,1.877-0.399,2.525-1.044c0.646-0.647,1.047-1.54,1.047-2.525l-0.004-16.018l30.078,30.079l-10.851,10.851
			c-8.663,8.663-8.667,22.764,0,31.431c8.663,8.664,22.765,8.664,31.432,0c8.663-8.667,8.663-22.768,0-31.435l-10.666-10.664
			l17.983-17.981l28.627,28.627h-15.653c-1.974-0.002-3.571,1.598-3.571,3.571c0,1.971,1.598,3.572,3.571,3.572h23.371
			c0.945,0,1.855-0.377,2.525-1.047s1.043-1.576,1.047-2.525v-25.171c-0.004-1.972-1.602-3.57-3.572-3.572
			c-1.974,0-3.574,1.6-3.571,3.572v15.646l-27.724-27.725L153.316,102.817z M125.233,152.231c5.881,5.881,5.881,15.443-0.003,21.327
			c-5.881,5.881-15.447,5.881-21.328,0c-5.88-5.88-5.88-15.446,0-21.327l10.666-10.665L125.233,152.231z M126.936,97.767
			c-5.88-5.88-5.88-15.447,0-21.329c5.881-5.878,15.447-5.878,21.327,0.002c5.881,5.88,5.884,15.449,0.004,21.327l-10.665,10.666
			L126.936,97.767z"/>
	</g>
</g>
<g id="gr_x5F_icon17_x5F_retour_x5F_02" display="none">
	<g id="gr_x5F_big_43_" display="inline">
		<path id="gr_237_" fill="#F3BA48" d="M237.667,172.702c0,9.543-6.759,21.251-15.021,26.019l-82.624,47.701
			c-8.263,4.771-21.78,4.771-30.043,0l-82.624-47.701c-8.263-4.768-15.021-16.476-15.021-26.019V77.298
			c0-9.539,6.759-21.247,15.021-26.018l82.624-47.702c8.263-4.771,21.78-4.771,30.043,0l82.624,47.702
			c8.263,4.771,15.021,16.479,15.021,26.018V172.702z"/>
		<path fill="#FFFFFF" d="M202.567,104.609l-15.242-8.796c-1.701-0.983-3.093-0.178-3.093,1.786v5.225h-9.114
			c-5.263,0-11.174,3.718-13.459,8.461l-18.806,39.096c-1.109,2.309-4.457,4.415-7.018,4.415v0.044
			c-0.145-0.018-0.286-0.044-0.436-0.044h-21.24c-2.56,0-5.908-2.106-7.018-4.415l-18.806-39.096
			c-2.28-4.743-8.196-8.461-13.455-8.461h-9.117v-5.225c0-1.963-1.388-2.769-3.09-1.786l-15.241,8.796
			c-1.702,0.983-1.702,2.591,0,3.571l15.241,8.796c1.702,0.983,3.09,0.182,3.09-1.786v-5.225h9.117c2.56,0,5.908,2.106,7.017,4.416
			l18.806,39.096c2.281,4.744,8.196,8.462,13.456,8.462h21.24c0.149,0,0.291-0.026,0.436-0.044v0.044
			c5.264,0,11.175-3.718,13.456-8.462l18.806-39.096c1.109-2.309,4.457-4.416,7.021-4.416h9.114v5.225
			c0,1.967,1.392,2.769,3.093,1.786l15.242-8.796C204.269,107.201,204.269,105.593,202.567,104.609z"/>
	</g>
</g>
<g id="gr_x5F_icon17_x5F_retour_x5F_03" display="none">
	<g id="gr_x5F_big_45_" display="inline">
		<path id="gr_238_" fill="#F3BA48" d="M237.667,172.701c0,9.542-6.759,21.251-15.021,26.019l-82.624,47.701
			c-8.263,4.771-21.78,4.771-30.043,0L27.354,198.72c-8.263-4.768-15.021-16.477-15.021-26.019V77.298
			c0-9.539,6.759-21.247,15.021-26.019l82.624-47.702c8.263-4.771,21.78-4.771,30.043,0l82.624,47.702
			c8.263,4.771,15.021,16.479,15.021,26.019V172.701z"/>
		<path fill="#FFFFFF" d="M132.6,81.232h-5.309v107.143c0,1.974-1.601,3.571-3.571,3.571s-3.571-1.598-3.571-3.571v-44.644
			c0-15.754-12.817-28.57-28.571-28.57c-0.331,0-0.635-0.105-0.938-0.188v5.413c0,1.968-1.395,2.77-3.097,1.786l-15.241-8.796
			c-1.702-0.98-1.702-2.588,0-3.572l15.241-8.796c1.702-0.983,3.097-0.178,3.097,1.786v5.413c0.304-0.084,0.607-0.188,0.938-0.188
			c11.688,0,22.053,5.671,28.571,14.376V81.232h-5.141c-1.967,0-2.77-1.392-1.786-3.094l8.796-15.241
			c0.98-1.702,2.588-1.702,3.572,0l8.796,15.241C135.369,79.841,134.563,81.232,132.6,81.232z"/>
	</g>
</g>
<g id="gr_x5F_icon17_x5F_retour_x5F_04" display="none">
	<g id="gr_x5F_big_47_" display="inline">
		<path id="gr_242_" fill="#F3BA48" d="M237.667,172.703c0,9.543-6.759,21.248-15.021,26.019l-82.624,47.698
			c-8.263,4.771-21.78,4.771-30.043,0l-82.624-47.698c-8.263-4.771-15.021-16.476-15.021-26.019V77.299
			c0-9.539,6.759-21.248,15.021-26.019l82.624-47.702c8.263-4.771,21.78-4.771,30.043,0l82.624,47.702
			c8.263,4.771,15.021,16.479,15.021,26.019V172.703z"/>
		<path fill="#FFFFFF" d="M185.99,135.922l-18.095,10.442c-2.02,1.165-3.673,0.213-3.673-2.12v-6.429
			c-0.359,0.102-0.722,0.228-1.112,0.228c-18.08,0-32.861,14.229-33.824,32.072v1.172c0,2.344-1.897,4.241-4.237,4.241
			s-4.237-1.897-4.237-4.241v0.652c0-18.697-15.214-33.914-33.915-33.914c-0.397,0-0.753-0.122-1.116-0.227v6.428
			c0,2.333-1.653,3.289-3.672,2.12l-18.091-10.438c-2.023-1.165-2.023-3.073,0-4.241l18.091-10.442
			c2.019-1.165,3.672-0.209,3.672,2.121v6.427c0.363-0.102,0.719-0.227,1.116-0.227c13.874,0,26.176,6.73,33.915,17.065V97.753
			h-6.104c-2.337,0-3.286-1.653-2.121-3.669l10.442-18.094c1.161-2.019,3.069-2.019,4.237,0l10.439,18.094
			c1.172,2.016,0.216,3.669-2.117,3.669h-6.303v48.765c7.743-10.268,19.999-16.957,33.824-16.957c0.391,0,0.753,0.125,1.112,0.23
			v-6.431c0-2.33,1.653-3.285,3.673-2.117l18.095,10.438C188.006,132.85,188.006,134.757,185.99,135.922z"/>
	</g>
</g>
<g id="gr_x5F_icon17_x5F_retour_x5F_05" display="none">
	<g id="gr_x5F_big_48_" display="inline">
		<path id="gr_244_" fill="#F3BA48" d="M237.666,172.704c0,9.542-6.759,21.247-15.021,26.019l-82.624,47.698
			c-8.263,4.771-21.781,4.771-30.043,0l-82.625-47.698c-8.262-4.771-15.021-16.477-15.021-26.019V77.301
			c0-9.542,6.759-21.249,15.021-26.02l82.625-47.702c8.262-4.771,21.781-4.771,30.043,0l82.624,47.702
			c8.263,4.771,15.021,16.478,15.021,26.02V172.704z"/>
		<g display="none">
			<g display="inline">
				<polygon fill="#FFFFFF" points="99.165,91.873 124.416,66.618 149.675,91.873 				"/>
				<rect x="115.487" y="91.873" fill="#FFFFFF" width="17.857" height="89.285"/>
			</g>
			<g display="inline">
				<g>
					<path fill="#FFFFFF" d="M133.345,181.158h-17.857c0-19.447-15.82-35.268-35.268-35.268v-17.857
						C109.517,128.033,133.345,151.865,133.345,181.158z"/>
				</g>
				<polygon fill="#FFFFFF" points="80.22,161.474 54.969,136.216 80.22,110.965 				"/>
			</g>
			<g display="inline">
				<g>
					<path fill="#FFFFFF" d="M115.487,181.158h17.857c0-19.447,15.82-35.268,35.268-35.268v-17.857
						C139.323,128.033,115.487,151.865,115.487,181.158z"/>
				</g>
				<polygon fill="#FFFFFF" points="168.612,161.474 193.871,136.216 168.612,110.965 				"/>
			</g>
		</g>
		<path fill="#FFFFFF" d="M186.051,130.754l-16.364-16.364c-1.932-1.933-3.509-1.276-3.509,1.45v5.888
			c0,2.728-0.837,5.078-4.526,4.96c-11.357-0.362-21.068,5.027-28.529,12.332V98.165c0-2.728,2.229-4.96,4.959-4.96h5.197
			c2.727,0,3.375-1.576,1.45-3.505L128.36,73.332c-1.928-1.932-5.088-1.932-7.014,0L104.979,89.7
			c-1.929,1.929-1.276,3.505,1.455,3.505h5.193c2.731,0,4.959,2.232,4.959,4.96v40.567c-7.422-7.159-17.03-12.403-28.24-12.045
			c-3.687,0.118-4.527-2.232-4.527-4.96v-5.888c0-2.727-1.576-3.383-3.505-1.45l-16.368,16.364c-1.929,1.929-1.929,5.085,0,7.014
			l16.368,16.368c1.929,1.932,3.505,1.276,3.505-1.451v-4.506c0-2.728,0.014-4.841,4.527-4.96
			c13.447-0.353,27.026,17.613,28.24,25.936v1.757c0,0.824,0.224,1.592,0.583,2.278c0.755,1.901,2.328,2.682,4.265,2.682h0.115
			h0.404h6.093h0.115h0.404c2.728,0,4.739-1.535,4.751-5.595c0.014-7.693,14.254-27.427,28.334-27.058
			c4.513,0.119,4.526,2.232,4.526,4.96v4.506c0,2.728,1.577,3.383,3.509,1.451l16.364-16.368
			C187.983,135.839,187.983,132.683,186.051,130.754z"/>
	</g>
</g>
<g id="gr_x5F_icon17_x5F_retour_x5F_06">
	<g id="gr_x5F_big_49_">
		<path id="gr_246_" fill="#F3BA48" d="M237.666,172.704c0,9.542-6.759,21.247-15.021,26.019L140.02,246.42
			c-8.262,4.771-21.78,4.771-30.042,0l-82.625-47.697c-8.262-4.771-15.021-16.477-15.021-26.019V77.301
			c0-9.542,6.759-21.249,15.021-26.021L109.977,3.58c8.262-4.771,21.781-4.771,30.042,0l82.625,47.701
			c8.263,4.771,15.021,16.478,15.021,26.021V172.704z"/>
		<path fill="#FFFFFF" d="M165.313,93.184l-15.241-8.799c-1.703-0.98-3.094-0.178-3.094,1.786v3.582
			c-10.92,0.729-20.662,5.734-27.602,13.365V84.116h3.442c1.963,0,2.769-1.395,1.786-3.097l-8.796-15.241
			c-0.98-1.702-2.588-1.702-3.572,0l-8.799,15.241c-0.98,1.702-0.178,3.097,1.786,3.097h3.439v96.023
			c0,2.958,2.399,5.357,5.357,5.357c2.961,0,5.357-2.399,5.357-5.357v-49.456c0-15.809,12.151-28.822,27.602-30.217v3.299
			c0,1.963,1.391,2.769,3.094,1.786l15.241-8.796C167.016,95.775,167.016,94.168,165.313,93.184z"/>
	</g>
</g>
</svg>
