<?xml version="1.0" encoding="utf-8"?>
<!-- Generator: Adobe Illustrator 16.0.4, SVG Export Plug-In . SVG Version: 6.00 Build 0)  -->
<!DOCTYPE svg PUBLIC "-//W3C//DTD SVG 1.1//EN" "http://www.w3.org/Graphics/SVG/1.1/DTD/svg11.dtd">
<svg version="1.1" id="gr_x5F_icon17_x5F_retour" xmlns="http://www.w3.org/2000/svg" xmlns:xlink="http://www.w3.org/1999/xlink"
	 x="0px" y="0px" width="250px" height="250px" viewBox="0 0 250 250" enable-background="new 0 0 250 250" xml:space="preserve">
<path fill="#FFFFFF" d="M192.768,60.764l-29.97-17.303c-3.347-1.927-6.083-0.35-6.083,3.511v7.04
	c-21.472,1.437-40.627,11.274-54.274,26.279V42.93h6.769c3.861,0,5.446-2.737,3.512-6.083L95.425,6.877
	c-1.927-3.347-5.089-3.347-7.022,0L71.1,36.847c-1.927,3.346-0.35,6.083,3.511,6.083h6.762v188.818
	c0,5.819,4.718,10.533,10.533,10.533c5.824,0,10.534-4.714,10.534-10.533v-97.25c0-31.083,23.894-56.668,54.274-59.417v6.491
	c0,3.861,2.736,5.445,6.083,3.511l29.97-17.296C196.114,65.86,196.114,62.698,192.768,60.764z"/>
</svg>
