<svg xmlns="http://www.w3.org/2000/svg" width="250" height="250"><path fill="#F3BA48" d="M237.666,172.704c0,9.542-6.759,21.247-15.021,26.019L140.02,246.42 c-8.262,4.771-21.78,4.771-30.042,0l-82.625-47.697c-8.262-4.771-15.021-16.477-15.021-26.019V77.301 c0-9.542,6.759-21.249,15.021-26.021L109.977,3.58c8.262-4.771,21.781-4.771,30.042,0l82.625,47.701 c8.263,4.771,15.021,16.478,15.021,26.021V172.704z"/><path fill="#FFF" d="M165.313,93.184l-15.241-8.799c-1.703-0.98-3.094-0.178-3.094,1.786v3.582 c-10.92,0.729-20.662,5.734-27.602,13.365V84.116h3.442c1.963,0,2.769-1.395,1.786-3.097l-8.796-15.241 c-0.98-1.702-2.588-1.702-3.572,0l-8.799,15.241c-0.98,1.702-0.178,3.097,1.786,3.097h3.439v96.023 c0,2.958,2.399,5.357,5.357,5.357c2.961,0,5.357-2.399,5.357-5.357v-49.456c0-15.809,12.151-28.822,27.602-30.217v3.299 c0,1.963,1.391,2.769,3.094,1.786l15.241-8.796C167.016,95.775,167.016,94.168,165.313,93.184z"/></svg>